<?xml version="1.0" encoding="UTF-8"?>
<svg width="76px" height="76px" viewBox="0 0 76 76" version="1.1" xmlns="http://www.w3.org/2000/svg" xmlns:xlink="http://www.w3.org/1999/xlink">
    <title>Group 2</title>
    <g id="Page-1" stroke="none" stroke-width="1" fill="none" fill-rule="evenodd">
        <g id="Desktop-Copy" transform="translate(-130.000000, -579.000000)" fill-rule="nonzero">
            <g id="Group-2" transform="translate(130.000000, 579.000000)">
                <g id="Group-771">
                    <path d="M56.163,49.9493 C56.163,50.306 56.0571,50.6546 55.85895,50.95115 C55.66095,51.2477 55.37925,51.47885 55.0497,51.61535 C54.7203,51.75185 54.3576,51.78755 54.0078,51.71795 C53.658,51.64835 53.3367,51.4766 53.08455,51.22445 C52.8324,50.9723 52.66065,50.651 52.59105,50.3012 C52.52145,49.9514 52.55715,49.5887 52.69365,49.2593 C52.83015,48.92975 53.0613,48.64805 53.35785,48.4499 C53.6544,48.25175 54.003,48.146 54.3597,48.146 C54.8379,48.146 55.2966,48.33605 55.6347,48.67415 C55.97295,49.0124 56.163,49.4711 56.163,49.9493 Z" id="Path" fill="#FF8300"></path>
                    <polygon id="Path" fill="#FF8300" points="18.21615 21.3581 9.225945 21.3581 9.225945 30.37445 18.21615 30.37445"></polygon>
                    <polygon id="Path" fill="#FF8300" points="18.21615 33.35345 9.225945 33.35345 9.225945 42.3698 18.21615 42.3698"></polygon>
                    <polygon id="Path" fill="#FF8300" points="18.21615 45.34955 9.225945 45.34955 9.225945 54.36575 18.21615 54.36575"></polygon>
                    <polygon id="Path" fill="#FF8300" points="18.21615 57.3713 9.225945 57.3713 9.225945 66.36155 18.21615 66.36155"></polygon>
                    <path d="M56.66025,41.8472 L52.06065,41.8472 C49.9812,41.8472 47.9871,42.67325 46.51665,44.14355 C45.04635,45.614 44.2203,47.6081 44.2203,49.68755 L44.2203,67.72025 C44.2203,69.79955 45.04635,71.7938 46.51665,73.2641 C47.9871,74.7344 49.9812,75.56045 52.06065,75.56045 L56.66025,75.56045 C58.7397,75.56045 60.7338,74.7344 62.20425,73.2641 C63.67455,71.7938 64.5006,69.79955 64.5006,67.72025 L64.5006,49.68755 C64.5006,47.6081 63.67455,45.614 62.20425,44.14355 C60.7338,42.67325 58.7397,41.8472 56.66025,41.8472 Z M61.46895,67.694 C61.46205,68.96735 60.95325,70.1864 60.05295,71.0867 C59.15265,71.987 57.93345,72.49595 56.66025,72.5027 L52.06065,72.5027 C50.78985,72.4958 49.57335,71.9861 48.67725,71.08505 C47.781,70.184 47.2779784,68.96495 47.2779784,67.694 L47.2779784,49.66145 C47.2746,49.03115 47.3958,48.4064 47.6346,47.8232 C47.8734,47.23985 48.22515,46.7096 48.6696,46.26275 C49.11405,45.81575 49.64235,45.46115 50.22435,45.2192 C50.80635,44.97725 51.43035,44.8526 52.06065,44.8526 L56.66025,44.8526 C57.29175,44.8526 57.9171,44.9771 58.50045,45.21875 C59.08395,45.4604 59.61405,45.81455 60.0606,46.2611 C60.507,46.70765 60.8613,47.23775 61.10295,47.8211 C61.3446,48.4046 61.46895,49.02995 61.46895,49.66145 L61.46895,67.694 Z" id="Shape" fill="#424242"></path>
                    <path d="M17.1969,10.56476 L17.1969,11.191985 L21.7704,15.84395 L24.9327,12.68165 L28.09485,15.84395 L31.25715,12.68165 L34.41945,15.84395 L37.5816,12.68165 L40.7439,15.84395 L43.9062,12.68165 L47.06835,15.84395 L50.23065,12.68165 L52.8441,15.2951 L52.8441,36.41165 L55.74495,36.41165 L55.74495,13.46567 L56.529,12.68165 L59.6913,15.84395 L64.34325,11.191985 L64.34325,10.56476 C64.34325,9.24002 64.08225,7.928225 63.57525,6.704315 C63.0684,5.480405 62.3253,4.368335 61.38855,3.431585 C60.4518,2.49485 59.3397,1.75178 58.11585,1.244825 C56.89185,0.737855 55.5801,0.4769285 54.2553,0.4769285 L10.088385,0.4769285 L10.088385,3.456245 C11.973675,3.456245 13.78176,4.205165 15.1149,5.538275 C16.44795,6.871385 17.1969,8.67947 17.1969,10.56476 Z M54.35985,3.456245 C56.1393,3.46238 57.85215,4.133225 59.1624,5.337155 C60.4728,6.54107 61.2858,8.19116 61.44225,9.96368 L59.79585,11.61014 L56.63355,8.447885 L53.47125,11.61014 L50.3091,8.447885 L47.1468,11.61014 L43.9845,8.447885 L40.82235,11.61014 L37.66005,8.447885 L34.49775,11.61014 L31.3356,8.447885 L28.1733,11.61014 L25.011,8.447885 L21.7704,11.61014 L20.09775,9.93755 C19.93905,7.499225 18.90945,5.199095 17.1969,3.456245 L54.35985,3.456245 Z" id="Shape" fill="#424242"></path>
                    <path d="M2.979315,10.5644 C2.979315,8.679095 3.728235,6.87101 5.061345,5.537915 C6.394455,4.204805 8.20254,3.45587 10.08783,3.45587 L10.08783,0.4765625 C8.76309,0.4765625 7.451295,0.737495 6.227385,1.24445 C5.003475,1.75142 3.891405,2.494475 2.954655,3.431225 C2.01792,4.36796 1.274853,5.48003 0.7678905,6.703955 C0.2609295,7.927865 0,9.239645 0,10.5644 L0,75.482 L39.20145,75.482 L39.20145,72.5027 L2.979315,72.5027 L2.979315,10.5644 Z" id="Path" fill="#424242"></path>
                    <polygon id="Path" fill="#424242" points="46.6242 21.3581 22.4238 21.3581 22.4238 24.3635 46.6242 24.3635"></polygon>
                    <polygon id="Path" fill="#424242" points="46.6242 27.34325 22.4238 27.34325 22.4238 30.34865 46.6242 30.34865"></polygon>
                    <polygon id="Path" fill="#424242" points="46.6242 33.35345 22.4238 33.35345 22.4238 36.359 46.6242 36.359"></polygon>
                    <polygon id="Path" fill="#424242" points="39.1497 39.365 22.4238 39.365 22.4238 42.37055 39.1497 42.37055"></polygon>
                    <polygon id="Path" fill="#424242" points="39.1497 45.34955 22.4238 45.34955 22.4238 48.35495 39.1497 48.35495"></polygon>
                    <polygon id="Path" fill="#424242" points="39.1497 51.3605 22.4238 51.3605 22.4238 54.3659 39.1497 54.3659"></polygon>
                    <polygon id="Path" fill="#424242" points="39.1497 57.3713 22.4238 57.3713 22.4238 60.3767 39.1497 60.3767"></polygon>
                    <polygon id="Path" fill="#424242" points="39.1497 63.35585 22.4238 63.35585 22.4238 66.3614 39.1497 66.3614"></polygon>
                </g>
                <g id="Group" transform="translate(61.000000, 31.000000)" fill="#FF7900">
                    <polygon id="Path" points="11.4587338 10.20645 10.1145779 7.79445 5.46686688 10.5243 6.81102273 12.9363"></polygon>
                    <polygon id="Path" points="5.56358766 2.369955 3.42301948 0.669435 0.146201299 5.017185 2.28691558 6.71775"></polygon>
                    <polygon id="Path" points="13.7023052 16.9962 8.39113636 17.69385 8.73462662 20.45025 14.0459416 19.7526"></polygon>
                </g>
            </g>
        </g>
    </g>
</svg>