<?xml version="1.0" encoding="UTF-8"?>
<svg width="43px" height="30px" viewBox="0 0 43 30" version="1.1" xmlns="http://www.w3.org/2000/svg" xmlns:xlink="http://www.w3.org/1999/xlink">
    <title>Group 65</title>
    <g id="Page-1" stroke="none" stroke-width="1" fill="none" fill-rule="evenodd">
        <g id="Mobile" transform="translate(-175.000000, -172.000000)">
            <g id="Group-65" transform="translate(175.000000, 172.000000)">
                <polygon id="Fill-1" fill="#CB001C" points="0 29.36715 43 29.36715 43 27.10815 0 27.10815"></polygon>
                <polygon id="Fill-2" fill="#FFFFFF" points="0 27.10815 43 27.10815 43 24.84915 0 24.84915"></polygon>
                <polygon id="Fill-3" fill="#CB001C" points="0 24.85065 43 24.85065 43 22.59315 0 22.59315"></polygon>
                <polygon id="Fill-4" fill="#FFFFFF" points="0 22.59315 43 22.59315 43 20.33265 0 20.33265"></polygon>
                <polygon id="Fill-5" fill="#CB001C" points="0 20.33265 43 20.33265 43 18.07215 0 18.07215"></polygon>
                <polygon id="Fill-6" fill="#FFFFFF" points="0 18.07365 43 18.07365 43 15.81615 0 15.81615"></polygon>
                <polygon id="Fill-7" fill="#CB001C" points="0 15.81615 43 15.81615 43 13.55415 0 13.55415"></polygon>
                <polygon id="Fill-8" fill="#FFFFFF" points="0 13.55415 43 13.55415 43 11.29665 0 11.29665"></polygon>
                <polygon id="Fill-9" fill="#CB001C" points="0 11.29815 43 11.29815 43 9.03765 0 9.03765"></polygon>
                <polygon id="Fill-10" fill="#FFFFFF" points="0 9.03765 43 9.03765 43 6.77715 0 6.77715"></polygon>
                <polygon id="Fill-11" fill="#CB001C" points="0 6.77715 43 6.77715 43 4.51815 0 4.51815"></polygon>
                <polygon id="Fill-12" fill="#FFFFFF" points="0 4.51965 43 4.51965 43 2.26065 0 2.26065"></polygon>
                <polygon id="Fill-13" fill="#CB001C" points="0 2.26065 43 2.26065 43 0.00015 0 0.00015"></polygon>
                <polygon id="Fill-14" fill="#2A3560" points="0 15.81615 22.992 15.81615 22.992 0.00015 0 0.00015"></polygon>
                <polygon id="Fill-15" fill="#FFFFFF" points="1.88055 2.34285 1.25655 2.34285 1.76655 2.71185 1.56705 3.30885 2.07705 2.93985 2.58705 3.30885 2.39355 2.71185 2.90355 2.34285 2.27355 2.34285 2.07705 1.74285"></polygon>
                <polygon id="Fill-16" fill="#FFFFFF" points="1.88055 4.98075 1.25655 4.98075 1.76655 5.34825 1.56705 5.94825 2.07705 5.57925 2.58705 5.94825 2.39355 5.34825 2.90355 4.98075 2.27355 4.98075 2.07705 4.38375"></polygon>
                <polygon id="Fill-17" fill="#FFFFFF" points="1.88055 7.62 1.25655 7.62 1.76655 7.9905 1.56705 8.5875 2.07705 8.2185 2.58705 8.5875 2.39355 7.9905 2.90355 7.62 2.27355 7.62 2.07705 7.023"></polygon>
                <polygon id="Fill-18" fill="#FFFFFF" points="1.88055 10.2606 1.25655 10.2606 1.76655 10.6311 1.56705 11.2266 2.07705 10.8591 2.58705 11.2266 2.39355 10.6311 2.90355 10.2606 2.27355 10.2606 2.07705 9.6621"></polygon>
                <polygon id="Fill-19" fill="#FFFFFF" points="1.88055 12.90255 1.25655 12.90255 1.76655 13.26855 1.56705 13.86705 2.07705 13.49655 2.58705 13.86705 2.39355 13.26855 2.90355 12.90255 2.27355 12.90255 2.07705 12.30105"></polygon>
                <polygon id="Fill-20" fill="#FFFFFF" points="3.9171 3.13335 4.1046 3.73185 4.7376 3.73185 4.2306 4.10235 4.4211 4.69935 3.9171 4.33185 3.4101 4.69935 3.6006 4.10235 3.0936 3.73185 3.7236 3.73185"></polygon>
                <polygon id="Fill-21" fill="#FFFFFF" points="3.9171 5.7744 4.1046 6.3699 4.7376 6.3699 4.2306 6.7419 4.4211 7.3374 3.9171 6.9714 3.4101 7.3374 3.6006 6.7419 3.0936 6.3699 3.7236 6.3699"></polygon>
                <polygon id="Fill-22" fill="#FFFFFF" points="3.9171 8.4141 4.1046 9.0111 4.7376 9.0111 4.2306 9.3816 4.4211 9.9786 3.9171 9.6096 3.4101 9.9786 3.6006 9.3816 3.0936 9.0111 3.7236 9.0111"></polygon>
                <polygon id="Fill-23" fill="#FFFFFF" points="3.9171 11.05515 4.1046 11.65065 4.7376 11.65065 4.2306 12.02115 4.4211 12.61665 3.9171 12.24615 3.4101 12.61665 3.6006 12.02115 3.0936 11.65065 3.7236 11.65065"></polygon>
                <polygon id="Fill-24" fill="#FFFFFF" points="5.77455 1.74315 5.97105 2.34165 6.60105 2.34165 6.09105 2.71215 6.28755 3.30915 5.77455 2.94015 5.27055 3.30915 5.46405 2.71215 4.95405 2.34165 5.58105 2.34165"></polygon>
                <polygon id="Fill-25" fill="#FFFFFF" points="5.77455 4.38435 5.97105 4.97985 6.60105 4.97985 6.09105 5.34885 6.28755 5.94885 5.77455 5.57835 5.27055 5.94885 5.46405 5.34885 4.95405 4.97985 5.58105 4.97985"></polygon>
                <polygon id="Fill-26" fill="#FFFFFF" points="5.77455 7.0239 5.97105 7.6194 6.60105 7.6194 6.09105 7.9899 6.28755 8.5884 5.77455 8.2179 5.27055 8.5884 5.46405 7.9899 4.95405 7.6194 5.58105 7.6194"></polygon>
                <polygon id="Fill-27" fill="#FFFFFF" points="5.77455 9.6621 5.97105 10.2606 6.60105 10.2606 6.09105 10.6311 6.28755 11.2266 5.77455 10.8591 5.27055 11.2266 5.46405 10.6311 4.95405 10.2606 5.58105 10.2606"></polygon>
                <polygon id="Fill-28" fill="#FFFFFF" points="5.77455 12.3018 5.97105 12.9018 6.60105 12.9018 6.09105 13.2693 6.28755 13.8663 5.77455 13.4973 5.27055 13.8663 5.46405 13.2693 4.95405 12.9018 5.58105 12.9018"></polygon>
                <polygon id="Fill-29" fill="#FFFFFF" points="7.6143 3.13335 7.8078 3.73185 8.4408 3.73185 7.9278 4.10235 8.1243 4.69935 7.6143 4.33185 7.1073 4.69935 7.3038 4.10235 6.7908 3.73185 7.4208 3.73185"></polygon>
                <polygon id="Fill-30" fill="#FFFFFF" points="7.6143 5.7744 7.8078 6.3699 8.4408 6.3699 7.9278 6.7419 8.1243 7.3374 7.6143 6.9714 7.1073 7.3374 7.3038 6.7419 6.7908 6.3699 7.4208 6.3699"></polygon>
                <polygon id="Fill-31" fill="#FFFFFF" points="7.6143 8.4141 7.8078 9.0111 8.4408 9.0111 7.9278 9.3816 8.1243 9.9786 7.6143 9.6096 7.1073 9.9786 7.3038 9.3816 6.7908 9.0111 7.4208 9.0111"></polygon>
                <polygon id="Fill-32" fill="#FFFFFF" points="7.6143 11.05515 7.8078 11.65065 8.4408 11.65065 7.9278 12.02115 8.1243 12.61665 7.6143 12.24615 7.1073 12.61665 7.3038 12.02115 6.7908 11.65065 7.4208 11.65065"></polygon>
                <polygon id="Fill-33" fill="#FFFFFF" points="9.4776 1.74315 9.6741 2.34165 10.2981 2.34165 9.7881 2.71215 9.9906 3.30915 9.4776 2.94015 8.9676 3.30915 9.1611 2.71215 8.6571 2.34165 9.2841 2.34165"></polygon>
                <polygon id="Fill-34" fill="#FFFFFF" points="9.4776 4.38435 9.6741 4.97985 10.2981 4.97985 9.7881 5.34885 9.9906 5.94885 9.4776 5.57835 8.9676 5.94885 9.1611 5.34885 8.6571 4.97985 9.2841 4.97985"></polygon>
                <polygon id="Fill-35" fill="#FFFFFF" points="9.4776 7.0239 9.6741 7.6194 10.2981 7.6194 9.7881 7.9899 9.9906 8.5884 9.4776 8.2179 8.9676 8.5884 9.1611 7.9899 8.6571 7.6194 9.2841 7.6194"></polygon>
                <polygon id="Fill-36" fill="#FFFFFF" points="9.4776 9.6621 9.6741 10.2606 10.2981 10.2606 9.7881 10.6311 9.9906 11.2266 9.4776 10.8591 8.9676 11.2266 9.1611 10.6311 8.6571 10.2606 9.2841 10.2606"></polygon>
                <polygon id="Fill-37" fill="#FFFFFF" points="9.4776 12.3018 9.6741 12.9018 10.2981 12.9018 9.7881 13.2693 9.9906 13.8663 9.4776 13.4973 8.9676 13.8663 9.1611 13.2693 8.6571 12.9018 9.2841 12.9018"></polygon>
                <polygon id="Fill-38" fill="#FFFFFF" points="11.3175 3.13335 11.511 3.73185 12.138 3.73185 11.631 4.10235 11.8215 4.69935 11.3175 4.33185 10.8105 4.69935 11.001 4.10235 10.494 3.73185 11.121 3.73185"></polygon>
                <polygon id="Fill-39" fill="#FFFFFF" points="11.3175 5.7744 11.511 6.3699 12.138 6.3699 11.631 6.7419 11.8215 7.3374 11.3175 6.9714 10.8105 7.3374 11.001 6.7419 10.494 6.3699 11.121 6.3699"></polygon>
                <polygon id="Fill-40" fill="#FFFFFF" points="11.3175 8.4141 11.511 9.0111 12.138 9.0111 11.631 9.3816 11.8215 9.9786 11.3175 9.6096 10.8105 9.9786 11.001 9.3816 10.494 9.0111 11.121 9.0111"></polygon>
                <polygon id="Fill-41" fill="#FFFFFF" points="11.3175 11.05515 11.511 11.65065 12.138 11.65065 11.631 12.02115 11.8215 12.61665 11.3175 12.24615 10.8105 12.61665 11.001 12.02115 10.494 11.65065 11.121 11.65065"></polygon>
                <polygon id="Fill-42" fill="#FFFFFF" points="13.1748 1.74315 13.3713 2.34165 13.9983 2.34165 13.4913 2.71215 13.6878 3.30915 13.1748 2.94015 12.6708 3.30915 12.8613 2.71215 12.3543 2.34165 12.9813 2.34165"></polygon>
                <polygon id="Fill-43" fill="#FFFFFF" points="13.1748 4.38435 13.3713 4.97985 13.9983 4.97985 13.4913 5.34885 13.6878 5.94885 13.1748 5.57835 12.6708 5.94885 12.8613 5.34885 12.3543 4.97985 12.9813 4.97985"></polygon>
                <polygon id="Fill-44" fill="#FFFFFF" points="13.1748 7.0239 13.3713 7.6194 13.9983 7.6194 13.4913 7.9899 13.6878 8.5884 13.1748 8.2179 12.6708 8.5884 12.8613 7.9899 12.3543 7.6194 12.9813 7.6194"></polygon>
                <polygon id="Fill-45" fill="#FFFFFF" points="13.1748 9.6621 13.3713 10.2606 13.9983 10.2606 13.4913 10.6311 13.6878 11.2266 13.1748 10.8591 12.6708 11.2266 12.8613 10.6311 12.3543 10.2606 12.9813 10.2606"></polygon>
                <polygon id="Fill-46" fill="#FFFFFF" points="13.1748 12.3018 13.3713 12.9018 13.9983 12.9018 13.4913 13.2693 13.6878 13.8663 13.1748 13.4973 12.6708 13.8663 12.8613 13.2693 12.3543 12.9018 12.9813 12.9018"></polygon>
                <polygon id="Fill-47" fill="#FFFFFF" points="15.0147 3.13335 15.2082 3.73185 15.8412 3.73185 15.3312 4.10235 15.5247 4.69935 15.0147 4.33185 14.5077 4.69935 14.7042 4.10235 14.1942 3.73185 14.8242 3.73185"></polygon>
                <polygon id="Fill-48" fill="#FFFFFF" points="15.0147 5.7744 15.2082 6.3699 15.8412 6.3699 15.3312 6.7419 15.5247 7.3374 15.0147 6.9714 14.5077 7.3374 14.7042 6.7419 14.1942 6.3699 14.8242 6.3699"></polygon>
                <polygon id="Fill-49" fill="#FFFFFF" points="15.0147 8.4141 15.2082 9.0111 15.8412 9.0111 15.3312 9.3816 15.5247 9.9786 15.0147 9.6096 14.5077 9.9786 14.7042 9.3816 14.1942 9.0111 14.8242 9.0111"></polygon>
                <polygon id="Fill-50" fill="#FFFFFF" points="15.0147 11.05515 15.2082 11.65065 15.8412 11.65065 15.3312 12.02115 15.5247 12.61665 15.0147 12.24615 14.5077 12.61665 14.7042 12.02115 14.1942 11.65065 14.8242 11.65065"></polygon>
                <polygon id="Fill-51" fill="#FFFFFF" points="16.878 1.74315 17.0745 2.34165 17.7015 2.34165 17.1945 2.71215 17.385 3.30915 16.878 2.94015 16.374 3.30915 16.5645 2.71215 16.0575 2.34165 16.6845 2.34165"></polygon>
                <polygon id="Fill-52" fill="#FFFFFF" points="16.878 4.38435 17.0745 4.97985 17.7015 4.97985 17.1945 5.34885 17.385 5.94885 16.878 5.57835 16.374 5.94885 16.5645 5.34885 16.0575 4.97985 16.6845 4.97985"></polygon>
                <polygon id="Fill-53" fill="#FFFFFF" points="16.878 7.0239 17.0745 7.6194 17.7015 7.6194 17.1945 7.9899 17.385 8.5884 16.878 8.2179 16.374 8.5884 16.5645 7.9899 16.0575 7.6194 16.6845 7.6194"></polygon>
                <polygon id="Fill-54" fill="#FFFFFF" points="16.878 9.6621 17.0745 10.2606 17.7015 10.2606 17.1945 10.6311 17.385 11.2266 16.878 10.8591 16.374 11.2266 16.5645 10.6311 16.0575 10.2606 16.6845 10.2606"></polygon>
                <polygon id="Fill-55" fill="#FFFFFF" points="16.878 12.3018 17.0745 12.9018 17.7015 12.9018 17.1945 13.2693 17.385 13.8663 16.878 13.4973 16.374 13.8663 16.5645 13.2693 16.0575 12.9018 16.6845 12.9018"></polygon>
                <polygon id="Fill-56" fill="#FFFFFF" points="18.7179 3.13335 18.9084 3.73185 19.5384 3.73185 19.0344 4.10235 19.2219 4.69935 18.7179 4.33185 18.2049 4.69935 18.4014 4.10235 17.8974 3.73185 18.5214 3.73185"></polygon>
                <polygon id="Fill-57" fill="#FFFFFF" points="18.7179 5.7744 18.9084 6.3699 19.5384 6.3699 19.0344 6.7419 19.2219 7.3374 18.7179 6.9714 18.2049 7.3374 18.4014 6.7419 17.8974 6.3699 18.5214 6.3699"></polygon>
                <polygon id="Fill-58" fill="#FFFFFF" points="18.7179 8.4141 18.9084 9.0111 19.5384 9.0111 19.0344 9.3816 19.2219 9.9786 18.7179 9.6096 18.2049 9.9786 18.4014 9.3816 17.8974 9.0111 18.5214 9.0111"></polygon>
                <polygon id="Fill-59" fill="#FFFFFF" points="18.7179 11.05515 18.9084 11.65065 19.5384 11.65065 19.0344 12.02115 19.2219 12.61665 18.7179 12.24615 18.2049 12.61665 18.4014 12.02115 17.8974 11.65065 18.5214 11.65065"></polygon>
                <polygon id="Fill-60" fill="#FFFFFF" points="20.5752 1.74315 20.7747 2.34165 21.3987 2.34165 20.8917 2.71215 21.0882 3.30915 20.5752 2.94015 20.0712 3.30915 20.2617 2.71215 19.7547 2.34165 20.3817 2.34165"></polygon>
                <polygon id="Fill-61" fill="#FFFFFF" points="20.5752 4.38435 20.7747 4.97985 21.3987 4.97985 20.8917 5.34885 21.0882 5.94885 20.5752 5.57835 20.0712 5.94885 20.2617 5.34885 19.7547 4.97985 20.3817 4.97985"></polygon>
                <polygon id="Fill-62" fill="#FFFFFF" points="20.5752 7.0239 20.7747 7.6194 21.3987 7.6194 20.8917 7.9899 21.0882 8.5884 20.5752 8.2179 20.0712 8.5884 20.2617 7.9899 19.7547 7.6194 20.3817 7.6194"></polygon>
                <polygon id="Fill-63" fill="#FFFFFF" points="20.5752 9.6621 20.7747 10.2606 21.3987 10.2606 20.8917 10.6311 21.0882 11.2266 20.5752 10.8591 20.0712 11.2266 20.2617 10.6311 19.7547 10.2606 20.3817 10.2606"></polygon>
                <polygon id="Fill-64" fill="#FFFFFF" points="20.5752 12.3018 20.7747 12.9018 21.3987 12.9018 20.8917 13.2693 21.0882 13.8663 20.5752 13.4973 20.0712 13.8663 20.2617 13.2693 19.7547 12.9018 20.3817 12.9018"></polygon>
            </g>
        </g>
    </g>
</svg>