<?xml version="1.0" encoding="UTF-8"?>
<svg width="76px" height="76px" viewBox="0 0 76 76" version="1.1" xmlns="http://www.w3.org/2000/svg" xmlns:xlink="http://www.w3.org/1999/xlink">
    <title>ico-tv</title>
    <g id="Page-1" stroke="none" stroke-width="1" fill="none" fill-rule="evenodd">
        <g id="Desktop" transform="translate(-872.000000, -1100.000000)">
            <g id="ico-tv" transform="translate(872.000000, 1100.000000)">
                <polygon id="Clip-5" points="0 76 76 76 76 0 0 0"></polygon>
                <polygon id="Path" fill="#424242" fill-rule="nonzero" points="50.3168953 66.4062385 50.3168953 60 47.3659687 60 47.3659687 66.4062385 28.6339109 66.4062385 28.6339109 60 25.6829843 60 25.6829843 66.4062385 21 66.4062385 21 70 25.6829843 70 50.3168953 70 55 70 55 66.4062385"></polygon>
                <path d="M74.8977398,7.06986605 C74.2363631,6.39416056 73.3545963,6 72.4177062,6 L3.47207812,6 C2.59028034,6 1.70848256,6.39416056 1.04713681,7.06986605 C0.385786918,7.74557259 0,8.64650405 0,9.54744611 L0,49.7518318 L0,52.3420561 L0,56.3962742 C0,57.3535702 0.385786918,58.2544486 1.04713681,58.930187 C1.70848256,59.6059253 2.59028034,60 3.52719113,60 L72.4728296,60 C73.4097197,60 74.2914864,59.6059253 74.9528632,58.930187 C75.61424,58.2544486 76,57.3535702 76,56.3962742 L76,52.3420561 L76,49.7518318 L76,9.54744611 C75.9448767,8.64650405 75.5591166,7.74557259 74.8977398,7.06986605 Z M3,11.001247 C3,9.80403809 3.56335409,9 5.001563,9 L70.9934435,9 C72.4035592,9 73,9.72319543 73,11.001247 L73,55.0059379 C73,56.1961548 72.3417486,57 70.9934435,57 L5.001563,57 C3.48473438,57 3,56.1437574 3,55.0059379 L3,11.001247 Z" id="Shape" fill="#424242" fill-rule="nonzero"></path>
                <path d="M69.37181,55 L6.57003962,55 C5.69779417,55 5,54.2902868 5,53.4032568 L5,12.5967767 C5,11.7096798 5.69779417,11 6.57003962,11 L69.4299713,11 C70.3021731,11 71,11.7096798 71,12.5967767 L71,53.4032568 C70.9418387,54.2902868 70.2441209,55 69.37181,55 Z" id="Path" fill="#FF8300" fill-rule="nonzero"></path>
                <path d="M36.1538348,26 L26,26 L26,28.5971014 L29.4891556,28.5971014 L29.4891556,40 L32.6646792,40 L32.6646792,28.5971014 L36.1538348,28.5971014 L36.1538348,26 Z M46.6480584,26 L43.4921367,35.6376812 L40.3166131,26 L36.9450695,26 L41.9631809,40 L44.9818886,40 L50,26 L46.6480584,26 Z" id="Shape" fill="#FFFFFF" fill-rule="nonzero"></path>
            </g>
        </g>
    </g>
</svg>