<svg width="39" height="48" viewBox="0 0 39 48" fill="none" xmlns="http://www.w3.org/2000/svg">
<path d="M29.1797 11.5703H0.885498V47.1445H29.1797V11.5703Z" fill="#FF8300"/>
<path d="M30.0649 48.0037H0V10.6875H30.0649V48.0037ZM1.77079 46.223H28.2942V12.4682H1.77079V46.223Z" fill="#424242"/>
<path d="M30.0649 48.0037H0V10.6875H30.0649V48.0037ZM1.77079 46.223H28.2942V12.4682H1.77079V46.223Z" fill="#424242"/>
<path d="M29.179 47.1079H38.0329L33.6059 42.6562L29.179 47.1079Z" fill="#FF8300"/>
<path d="M38.0329 11.5781H29.179L33.6059 15.991L38.0329 11.5781Z" fill="#FF8300"/>
<path d="M38.9194 48.0037H28.2947V10.6875H38.9194V48.0037ZM30.0655 46.223H37.1486V12.4682H30.0655V46.223Z" fill="#424242"/>
<path d="M30.0656 11.5742H28.2948V8.01289C28.2948 6.34839 27.6404 4.8 26.4855 3.6C25.3306 2.43871 23.7523 1.78064 22.097 1.78064C20.4417 1.78064 18.9019 2.43871 17.7085 3.6C16.5537 4.76129 15.8992 6.34839 15.8992 8.01289V11.5742H14.1284V8.01289C14.1284 5.88387 14.9754 3.87097 16.4767 2.36129C17.978 0.851611 19.9797 0 22.097 0C24.2143 0 26.216 0.851611 27.7173 2.36129C29.2186 3.87097 30.0656 5.88387 30.0656 8.01289V11.5742Z" fill="#424242"/>
<path d="M22.9823 15.9871H21.2115V8.01289C21.2115 6.34839 20.5571 4.8 19.4022 3.6C18.2474 2.43871 16.669 1.78064 15.0137 1.78064C13.3585 1.78064 11.8186 2.43871 10.6253 3.6C9.4704 4.76129 8.81598 6.34839 8.81598 8.01289V16.0258H7.04517V8.01289C7.04517 5.88387 7.89211 3.87097 9.3934 2.36129C10.8947 0.851611 12.8965 0 15.0137 0C17.131 0 19.1327 0.851611 20.6341 2.36129C22.1354 3.87097 22.9823 5.88387 22.9823 8.01289V15.9871Z" fill="#424242"/>
<path d="M10.4325 15.0938H5.46655V16.8744H10.4325V15.0938Z" fill="#424242"/>
<path d="M24.599 15.0938H19.6331V16.8744H24.599V15.0938Z" fill="#424242"/>
<path d="M15.0131 22.6094C12.0874 22.6094 9.70068 25.0094 9.70068 27.9513C9.70068 30.39 11.356 32.4804 13.5887 33.0997L15.0131 30.0417L16.4374 33.0997C18.6701 32.4804 20.3254 30.4288 20.3254 27.9513C20.3254 25.0094 17.9772 22.6094 15.0131 22.6094Z" fill="white"/>
<path d="M15.898 36.7344H14.1272V40.4892H15.898V36.7344Z" fill="#424242"/>
<path d="M19.5167 37.6228H10.5088L15.0127 27.9453L19.5167 37.6228ZM13.3189 35.8421H16.7836L15.0127 32.1646L13.3189 35.8421Z" fill="#424242"/>
<path d="M34.492 19.5469H32.7212V39.0953H34.492V19.5469Z" fill="#424242"/>
</svg>
