<svg width="57" height="47" viewBox="0 0 57 47" fill="none" xmlns="http://www.w3.org/2000/svg">
<path fill-rule="evenodd" clip-rule="evenodd" d="M11.7877 10.943C7.73195 11.9386 0.49055 18.2699 1.02836 39.9311C2.00936 49.1586 11.7877 42.7591 11.7877 42.7591C11.7877 42.7591 20.2351 35.0083 27.9943 35.4281C33.508 35.5425 36.3592 36.8768 45.02 43.5572C48.8042 46.6957 53.7602 47.6919 55.0028 41.1133C55.8187 34.6344 53.797 12.2893 43.2543 10.943C35.5653 11.0819 34.9202 13.6141 28.0033 13.6141C21.0865 13.6141 17.8502 10.3141 11.7877 10.943Z" stroke="#424242" stroke-width="2"/>
<mask id="path-2-inside-1" fill="white">
<path fill-rule="evenodd" clip-rule="evenodd" d="M14.5551 17.0752C13.2327 17.0752 12.1608 18.1472 12.1608 19.4695V22.3958H9.23443C7.91211 22.3958 6.84015 23.4678 6.84015 24.7901C6.84015 26.1124 7.91211 27.1844 9.23443 27.1844H12.1608V30.1107C12.1608 31.4331 13.2327 32.505 14.5551 32.505C15.8774 32.505 16.9494 31.4331 16.9494 30.1107V27.1844H19.8757C21.198 27.1844 22.27 26.1124 22.27 24.7901C22.27 23.4678 21.198 22.3958 19.8757 22.3958H16.9494V19.4695C16.9494 18.1472 15.8774 17.0752 14.5551 17.0752Z"/>
</mask>
<path fill-rule="evenodd" clip-rule="evenodd" d="M14.5551 17.0752C13.2327 17.0752 12.1608 18.1472 12.1608 19.4695V22.3958H9.23443C7.91211 22.3958 6.84015 23.4678 6.84015 24.7901C6.84015 26.1124 7.91211 27.1844 9.23443 27.1844H12.1608V30.1107C12.1608 31.4331 13.2327 32.505 14.5551 32.505C15.8774 32.505 16.9494 31.4331 16.9494 30.1107V27.1844H19.8757C21.198 27.1844 22.27 26.1124 22.27 24.7901C22.27 23.4678 21.198 22.3958 19.8757 22.3958H16.9494V19.4695C16.9494 18.1472 15.8774 17.0752 14.5551 17.0752Z" fill="#FF7900"/>
<path d="M12.1608 22.3958V23.3958H13.1608V22.3958H12.1608ZM12.1608 27.1844H13.1608V26.1844H12.1608V27.1844ZM16.9494 27.1844V26.1844H15.9494V27.1844H16.9494ZM16.9494 22.3958H15.9494V23.3958H16.9494V22.3958ZM13.1608 19.4695C13.1608 18.6994 13.785 18.0752 14.5551 18.0752V16.0752C12.6805 16.0752 11.1608 17.5949 11.1608 19.4695H13.1608ZM13.1608 22.3958V19.4695H11.1608V22.3958H13.1608ZM9.23443 23.3958H12.1608V21.3958H9.23443V23.3958ZM7.84015 24.7901C7.84015 24.0201 8.46439 23.3958 9.23443 23.3958V21.3958C7.35982 21.3958 5.84015 22.9155 5.84015 24.7901H7.84015ZM9.23443 26.1844C8.46439 26.1844 7.84015 25.5602 7.84015 24.7901H5.84015C5.84015 26.6647 7.35982 28.1844 9.23443 28.1844V26.1844ZM12.1608 26.1844H9.23443V28.1844H12.1608V26.1844ZM13.1608 30.1107V27.1844H11.1608V30.1107H13.1608ZM14.5551 31.505C13.785 31.505 13.1608 30.8808 13.1608 30.1107H11.1608C11.1608 31.9854 12.6805 33.505 14.5551 33.505V31.505ZM15.9494 30.1107C15.9494 30.8808 15.3251 31.505 14.5551 31.505V33.505C16.4297 33.505 17.9494 31.9854 17.9494 30.1107H15.9494ZM15.9494 27.1844V30.1107H17.9494V27.1844H15.9494ZM19.8757 26.1844H16.9494V28.1844H19.8757V26.1844ZM21.27 24.7901C21.27 25.5602 20.6457 26.1844 19.8757 26.1844V28.1844C21.7503 28.1844 23.27 26.6647 23.27 24.7901H21.27ZM19.8757 23.3958C20.6457 23.3958 21.27 24.0201 21.27 24.7901H23.27C23.27 22.9155 21.7503 21.3958 19.8757 21.3958V23.3958ZM16.9494 23.3958H19.8757V21.3958H16.9494V23.3958ZM15.9494 19.4695V22.3958H17.9494V19.4695H15.9494ZM14.5551 18.0752C15.3251 18.0752 15.9494 18.6994 15.9494 19.4695H17.9494C17.9494 17.5949 16.4297 16.0752 14.5551 16.0752V18.0752Z" fill="#FF7900" mask="url(#path-2-inside-1)"/>
<circle cx="39.828" cy="19.7355" r="2.66032" fill="#D8D8D8"/>
<circle cx="39.828" cy="29.8449" r="2.66032" fill="#D8D8D8"/>
<circle cx="45.1487" cy="24.5246" r="2.66032" fill="#D8D8D8"/>
<circle cx="34.5074" cy="24.5246" r="2.66032" fill="#D8D8D8"/>
<rect x="27.0377" width="2.60377" height="5.20755" fill="#FF7900"/>
<path fill-rule="evenodd" clip-rule="evenodd" d="M35.1234 0.766602L37.3783 2.06849L34.7746 6.57836L32.5196 5.27647L35.1234 0.766602Z" fill="#FF7900"/>
<path fill-rule="evenodd" clip-rule="evenodd" d="M19.5008 2.06836L21.7557 0.766473L24.3595 5.27634L22.1046 6.57823L19.5008 2.06836Z" fill="#FF7900"/>
</svg>
