<?xml version="1.0" encoding="UTF-8"?><svg id="Capa_2" xmlns="http://www.w3.org/2000/svg" viewBox="0 0 29.33 20.53"><defs><style>.cls-1{fill:#3c3c3c;stroke-width:0px;}</style></defs><g id="Capa_1-2"><path class="cls-1" d="m28.67,3.2c-.4-1.33-1.33-2.27-2.53-2.67-2.27-.53-11.47-.53-11.47-.53,0,0-9.2,0-11.47.67-1.2.4-2.27,1.33-2.53,2.67-.67,2.13-.67,6.93-.67,6.93,0,0,0,4.8.67,7.07.4,1.33,1.33,2.27,2.53,2.53,2.27.67,11.47.67,11.47.67,0,0,9.2,0,11.47-.67,1.2-.4,2.27-1.33,2.53-2.53.67-2.27.67-7.07.67-7.07,0,0,0-4.8-.67-7.07ZM11.6,14.67V5.87l7.6,4.4-7.6,4.4Z"/></g></svg>