<svg id="Íconos_-_Claro_-_Centro_de_ayuda_-_informacion" data-name="Íconos - Claro - Centro de ayuda - informacion" xmlns="http://www.w3.org/2000/svg" width="42" height="42" viewBox="0 0 42 42">
  <rect id="Rectángulo_93" data-name="Rectángulo 93" width="42" height="42" fill="none"/>
  <g id="Group" transform="translate(9.068 9.072)">
    <ellipse id="Oval" cx="11.579" cy="11.611" rx="11.579" ry="11.611" transform="translate(0.632 0.633)" fill="#fff"/>
    <path id="Shape" d="M12.986,25.267A12.244,12.244,0,1,1,25.2,13.022,12.236,12.236,0,0,1,12.986,25.267Zm0-23.222a10.978,10.978,0,0,0,0,21.956,10.978,10.978,0,0,0,0-21.956Z" transform="translate(-0.776 -0.778)"/>
  </g>
  <path id="Path" d="M.212,21.111c0-.422-.105-.844-.105-1.372A19.048,19.048,0,0,1,18.318,0V1.161A17.793,17.793,0,0,0,1.37,19.739c0,.422.105.844.105,1.267Z" transform="translate(1.908 2)" fill="#bcc0c4"/>
  <path id="Path-2" data-name="Path" d="M37.161,27.956l-1.053-.528A17.877,17.877,0,0,0,27.476,2.833L28,1.778A18.867,18.867,0,0,1,39.371,18.456,19.1,19.1,0,0,1,37.161,27.956Z" transform="translate(0.539 1.91)" fill="#bcc0c4"/>
  <path id="Path-3" data-name="Path" d="M19.211,39.5a19.073,19.073,0,0,1-16-8.867L4.263,30a17.5,17.5,0,0,0,15.684,8.233,17.245,17.245,0,0,0,9.789-3.483l.737.95a19.473,19.473,0,0,1-10.421,3.694A2.609,2.609,0,0,1,19.211,39.5Z" transform="translate(1.752 0.5)" fill="#bcc0c4"/>
  <path id="Path-4" data-name="Path" d="M9.333,31.694a5.276,5.276,0,0,1-.842-.739A15.653,15.653,0,0,1,7.649,9l.947.844a14.375,14.375,0,0,0,.737,20.267c.211.211.526.422.737.633Z" transform="translate(1.734 1.551)" fill="#bcc0c4"/>
  <g id="Group-2" data-name="Group" transform="translate(17.384 18.783)">
    <path id="Path-5" data-name="Path" d="M1.33,9.639V8.372s1.053-.317,1.895-.633V2.567L1.33,1.933V.667H5.856V7.739c.842.317,1.895.633,1.895.633V9.639Z" transform="translate(-0.698 -0.033)" fill="#ef3829"/>
    <path id="Shape-2" data-name="Shape" d="M8.349,10.239H.665V7.917L2.56,7.283V2.956L.665,2.322V0H6.349V7.283l1.895.633v2.322ZM1.928,9.078H7.191V8.867L5.3,8.233V1.161H2.033v.211l1.895.633V8.022l-1.895.633v.422Z" transform="translate(-0.665)"/>
  </g>
  <g id="Group-3" data-name="Group" transform="translate(18.752 12.979)">
    <ellipse id="Oval-2" data-name="Oval" cx="1.895" cy="1.9" rx="1.895" ry="1.9" transform="translate(0.632 0.633)" fill="#ef3829"/>
    <path id="Shape-3" data-name="Shape" d="M2.524,5.511A2.565,2.565,0,0,1,0,2.978,2.565,2.565,0,0,1,2.524.444,2.565,2.565,0,0,1,5.05,2.978,2.565,2.565,0,0,1,2.524,5.511Zm0-3.906A1.4,1.4,0,0,0,1.155,2.978,1.4,1.4,0,0,0,2.524,4.35,1.4,1.4,0,0,0,3.892,2.978,1.4,1.4,0,0,0,2.524,1.606Z" transform="translate(0.003 -0.444)"/>
  </g>
</svg>
