<?xml version="1.0" encoding="UTF-8"?>
<svg width="43px" height="30px" viewBox="0 0 43 30" version="1.1" xmlns="http://www.w3.org/2000/svg" xmlns:xlink="http://www.w3.org/1999/xlink">
    <title>Group 12</title>
    <g id="Page-1" stroke="none" stroke-width="1" fill="none" fill-rule="evenodd">
        <g id="Mobile" transform="translate(-231.000000, -80.000000)">
            <g id="Group-12" transform="translate(231.000000, 80.000000)">
                <g id="Group-11">
                    <polygon id="Fill-1-Copy-2" fill="#FFFFFF" points="0 20 43 20 43 10 0 10"></polygon>
                    <polygon id="Fill-1" fill="#3564C2" points="0 30 43 30 43 20 0 20"></polygon>
                    <polygon id="Fill-2" fill="#3564C2" points="0 10 43 10 43 0 0 0"></polygon>
                </g>
                <g id="Group-10" transform="translate(18.000000, 11.000000)">
                    <polygon id="Fill-4" fill="#F5CD28" points="1.8125 5.3476 3.7815 1.9386 5.7485 5.3476"></polygon>
                    <polygon id="Fill-5" fill="#95D4FD" points="2.0049 5.2353 3.7789 2.1643 5.5539 5.2353"></polygon>
                    <g id="Group-170">
                        <path d="M2.3575,4.9511 C2.3335,4.9511 2.3085,4.9461 2.2855,4.9421 L2.2315,4.9281 L2.2265,4.8921 L2.2915,4.9111 C2.3435,4.9191 2.3945,4.9251 2.4555,4.9251 C2.4195,4.9431 2.3905,4.9511 2.3575,4.9511" id="Fill-6" fill="#95D4FD"></path>
                        <path d="M2.1934,5.1689 L2.1514,5.1469 C2.1724,5.1379 2.1894,5.1139 2.2154,5.0849 C2.2594,5.0709 2.2834,5.0769 2.3104,5.0849 C2.3284,5.0889 2.3454,5.0949 2.3704,5.0959 C2.4064,5.1169 2.4604,5.1129 2.4944,5.0979 L2.5454,5.0909 L2.5074,5.1259 C2.4714,5.1439 2.4034,5.1539 2.3594,5.1239 C2.3424,5.1259 2.3204,5.1219 2.3014,5.1159 C2.2764,5.1089 2.2594,5.1039 2.2314,5.1119 C2.2144,5.1349 2.2004,5.1559 2.1934,5.1689" id="Fill-8" fill="#95D4FD"></path>
                        <path d="M2.5362,5.2021 C2.4862,5.1951 2.4512,5.1951 2.3972,5.1961 L2.3482,5.1801 L2.3482,5.1971 C2.3132,5.2001 2.3002,5.2001 2.2912,5.1921 L2.2832,5.1971 L2.2832,5.1791 C2.3102,5.1651 2.3322,5.1651 2.3482,5.1631 L2.3972,5.1631 C2.4572,5.1631 2.5032,5.1631 2.5362,5.2021" id="Fill-10" fill="#95D4FD"></path>
                        <path d="M3.0303,4.9365 C2.9613,4.9365 2.9393,4.9135 2.9253,4.8445 C2.9003,4.8405 2.8503,4.8405 2.8163,4.8565 L2.7623,4.8575 L2.7483,4.8255 L2.8083,4.8255 C2.8453,4.8045 2.9063,4.8045 2.9493,4.8255 C2.9693,4.9015 2.9843,4.9095 3.0363,4.9115 C3.0373,4.8975 3.0623,4.8855 3.0843,4.8745 L3.1263,4.8875 C3.0803,4.9135 3.0573,4.9235 3.0473,4.9365 L3.0303,4.9365 Z" id="Fill-12" fill="#95D4FD"></path>
                        <path d="M2.9161,5.1181 L2.8751,5.0951 C2.8981,5.0871 2.9121,5.0631 2.9391,5.0341 C2.9931,4.9961 3.0231,4.9741 3.1001,4.9941 C3.1621,5.0431 3.1791,5.0561 3.2271,5.0611 C3.2571,5.0611 3.2781,5.0571 3.3001,5.0531 C3.3171,5.0511 3.3341,5.0481 3.3541,5.0441 C3.3381,5.0801 3.3211,5.0821 3.3051,5.0861 C3.2821,5.0891 3.2591,5.0941 3.2251,5.0941 C3.1661,5.0881 3.1431,5.0691 3.1071,5.0401 C3.0281,5.0111 3.0101,5.0251 2.9671,5.0551 C2.9391,5.0841 2.9251,5.1061 2.9161,5.1181" id="Fill-14" fill="#95D4FD"></path>
                        <path d="M3.2735,5.2295 C3.2215,5.2295 3.1865,5.2135 3.1465,5.1975 L3.1015,5.1775 C3.0885,5.1925 3.0725,5.2005 3.0605,5.2055 L3.0465,5.1795 L3.0595,5.1795 C3.0575,5.1715 3.0755,5.1635 3.0995,5.1495 L3.1595,5.1675 C3.1965,5.1835 3.2285,5.1965 3.2735,5.1975 C3.2895,5.1965 3.3025,5.1925 3.3175,5.1905 C3.3355,5.1865 3.3545,5.1795 3.3795,5.1795 C3.3585,5.2115 3.3425,5.2175 3.3255,5.2225 C3.3085,5.2255 3.2935,5.2285 3.2735,5.2295" id="Fill-16" fill="#95D4FD"></path>
                        <path d="M3.6993,4.873 C3.6493,4.857 3.5993,4.856 3.5483,4.857 L3.4873,4.857 L3.4743,4.825 L3.5333,4.825 C3.6033,4.822 3.6543,4.825 3.7053,4.843 L3.8673,4.842 L3.6993,4.873 Z" id="Fill-18" fill="#95D4FD"></path>
                        <path d="M3.7745,5.0771 C3.7135,5.0721 3.6845,5.0531 3.6535,5.0301 L3.6175,5.0071 C3.5855,4.9731 3.5315,4.9641 3.4855,4.9581 C3.4685,4.9731 3.4505,4.9791 3.4395,4.9841 L3.4265,4.9601 L3.4395,4.9601 C3.4355,4.9511 3.4535,4.9421 3.4785,4.9281 C3.5425,4.9321 3.6015,4.9431 3.6425,4.9821 L3.6725,5.0031 C3.7035,5.0251 3.7265,5.0401 3.7745,5.0441 C3.8165,5.0251 3.8305,5.0161 3.8505,5.0121 L3.8245,5.0591 C3.8115,5.0671 3.7985,5.0761 3.7745,5.0771" id="Fill-20" fill="#95D4FD"></path>
                        <path d="M3.8545,5.1611 C3.8055,5.1611 3.7675,5.1561 3.7305,5.1451 C3.6865,5.1181 3.6325,5.1461 3.6155,5.1591 L3.5955,5.1331 C3.6255,5.1121 3.6905,5.0821 3.7435,5.1141 C3.7865,5.1301 3.8385,5.1311 3.8905,5.1301 C3.9095,5.1231 3.9295,5.1131 3.9495,5.1041 C3.9775,5.0931 4.0055,5.0801 4.0215,5.0651 L4.0275,5.0611 L4.0685,5.0611 L4.0325,5.0941 C4.0235,5.1071 3.9945,5.1221 3.9625,5.1351 C3.9435,5.1411 3.9235,5.1521 3.9095,5.1591 C3.8905,5.1611 3.8705,5.1611 3.8545,5.1611" id="Fill-22" fill="#95D4FD"></path>
                        <path d="M4.2852,4.958 C4.2342,4.937 4.1562,4.938 4.1192,4.941 L4.1042,4.925 L4.1192,4.909 C4.1592,4.909 4.2412,4.905 4.2892,4.928 C4.3252,4.919 4.3462,4.893 4.3732,4.858 L4.3992,4.83 C4.4572,4.822 4.4972,4.825 4.5372,4.843 C4.4892,4.858 4.4532,4.857 4.4122,4.857 C4.3682,4.915 4.3412,4.949 4.2852,4.958" id="Fill-24" fill="#95D4FD"></path>
                        <path d="M4.334,5.1455 L4.325,5.1135 C4.325,5.1135 4.373,5.0985 4.41,5.0955 C4.446,5.0525 4.475,5.0745 4.497,5.0895 C4.509,5.0995 4.52,5.1095 4.535,5.1135 C4.584,5.0945 4.611,5.0565 4.636,5.0025 C4.641,5.0695 4.607,5.1225 4.537,5.1455 C4.505,5.1375 4.489,5.1255 4.477,5.1175 C4.455,5.0995 4.449,5.0955 4.425,5.1235 C4.381,5.1315 4.334,5.1455 4.334,5.1455" id="Fill-26" fill="#95D4FD"></path>
                        <path d="M4.4747,5.0156 L4.4607,4.9946 L4.4727,4.9946 C4.4657,4.9796 4.4847,4.9696 4.5087,4.9476 L4.5407,4.9206 C4.5607,4.9006 4.5787,4.8816 4.6247,4.8756 C4.6557,4.8356 4.6907,4.8696 4.7127,4.8876 C4.6627,4.8886 4.6557,4.8856 4.6387,4.9046 C4.5927,4.9116 4.5817,4.9236 4.5617,4.9426 C4.5527,4.9536 4.5447,4.9616 4.5287,4.9736 C4.5027,4.9946 4.4867,5.0066 4.4747,5.0156" id="Fill-28" fill="#95D4FD"></path>
                        <path d="M4.7247,5.1474 L4.6947,5.1414 C4.6967,5.1294 4.7177,5.0524 4.7297,5.0224 C4.7677,4.9964 4.7917,4.9824 4.8197,4.9884 C4.8397,4.9964 4.8587,5.0154 4.8787,5.0524 C4.8897,5.0544 4.9117,5.0674 4.9337,5.0804 C4.9557,5.0924 4.9777,5.1044 5.0007,5.1134 C4.9627,5.1354 4.9407,5.1224 4.9167,5.1074 C4.8977,5.0954 4.8777,5.0844 4.8587,5.0774 C4.8347,5.0394 4.8217,5.0244 4.8107,5.0204 C4.7957,5.0194 4.7797,5.0254 4.7527,5.0424 C4.7497,5.0634 4.7277,5.1354 4.7247,5.1474" id="Fill-30" fill="#95D4FD"></path>
                        <path d="M5.0186,4.958 C4.9766,4.886 4.9596,4.851 4.9186,4.839 C4.9166,4.868 4.9066,4.895 4.8996,4.909 L4.8606,4.893 C4.8766,4.882 4.8886,4.854 4.9106,4.816 C4.9856,4.822 5.0036,4.869 5.0266,4.919 C5.0796,4.925 5.1096,4.923 5.1386,4.897 C5.1236,4.956 5.0806,4.958 5.0186,4.958" id="Fill-32" fill="#95D4FD"></path>
                        <path d="M5.3897,5.1181 C5.3377,5.1121 5.3197,5.0951 5.3057,5.0801 C5.2877,5.0651 5.2757,5.0531 5.2507,5.0431 C5.2257,5.0271 5.2077,5.0341 5.1777,5.0981 L5.1477,5.0861 C5.1647,5.0481 5.1917,4.9971 5.2277,4.9941 L5.2697,5.0191 C5.2907,5.0251 5.3097,5.0401 5.3277,5.0561 C5.3417,5.0711 5.3577,5.0841 5.3817,5.0971 C5.3717,5.0741 5.3897,5.0671 5.4197,5.0611 C5.4027,5.0971 5.3987,5.0981 5.3897,5.1181" id="Fill-34" fill="#95D4FD"></path>
                        <path d="M4.1309,5.1718 L4.1159,5.1468 L4.1289,5.1468 C4.1269,5.1358 4.1439,5.1278 4.1689,5.1138 C4.2209,5.0728 4.2389,5.0568 4.2689,5.0028 C4.3089,4.9958 4.3319,4.9988 4.3519,5.0028 C4.3809,5.0068 4.4049,5.0118 4.4359,5.0118 C4.4029,5.0438 4.3769,5.0388 4.3479,5.0348 C4.3269,5.0308 4.3059,5.0288 4.2829,5.0258 C4.2649,5.0768 4.2409,5.0978 4.1979,5.1318 C4.1589,5.1558 4.1399,5.1648 4.1309,5.1718" id="Fill-36" fill="#95D4FD"></path>
                        <path d="M2.6114,4.9619 L2.5794,4.9599 C2.5794,4.9409 2.5964,4.9269 2.6594,4.8949 C2.6814,4.8689 2.7064,4.8779 2.7274,4.8859 L2.7624,4.9239 C2.7464,4.9239 2.7294,4.9189 2.7164,4.9149 L2.7164,4.9189 L2.6754,4.9229 C2.6284,4.9479 2.6134,4.9579 2.6114,4.9619" id="Fill-38" fill="#95D4FD"></path>
                        <path d="M2.7969,5.1279 C2.7829,5.1279 2.7709,5.1219 2.7599,5.1159 C2.7459,5.1069 2.7299,5.0989 2.7109,5.0939 C2.6969,5.1069 2.6779,5.1159 2.6669,5.1219 L2.6539,5.0959 L2.6669,5.0959 C2.6629,5.0859 2.6819,5.0779 2.7059,5.0639 C2.7419,5.0669 2.7599,5.0769 2.7769,5.0879 C2.7939,5.0989 2.8109,5.1079 2.8359,5.1119 C2.8199,5.1239 2.8079,5.1279 2.7969,5.1279" id="Fill-40" fill="#95D4FD"></path>
                        <polygon id="Fill-42" fill="#FFFFFF" points="3.7881 4.5371 3.7721 2.1931 3.7881 2.1931"></polygon>
                        <polygon id="Fill-44" fill="#FFFFFF" points="2.9346 3.6455 2.9346 3.6295 4.6256 3.6295"></polygon>
                        <polygon id="Fill-46" fill="#FFFFFF" points="5.0528 4.3662 3.1538 3.2892 3.1618 3.2722"></polygon>
                        <polygon id="Fill-48" fill="#FFFFFF" points="2.5137 4.3838 4.4177 3.2668 4.4267 3.2798"></polygon>
                        <polygon id="Fill-50" fill="#FFFFFF" points="3.4053 4.3115 3.3903 4.3045 4.1073 3.0645"></polygon>
                        <polygon id="Fill-52" fill="#FFFFFF" points="4.2344 4.4072 3.4214 3.0282 3.4354 3.0192"></polygon>
                        <path d="M4.042,3.6377 C4.042,3.7807 3.924,3.8977 3.779,3.8977 C3.637,3.8977 3.519,3.7807 3.519,3.6377 C3.519,3.4917 3.637,3.3767 3.779,3.3767 C3.924,3.3767 4.042,3.4917 4.042,3.6377" id="Fill-54" fill="#95D4FD"></path>
                        <path d="M5.2344,4.6797 L4.3554,4.6947 C4.3554,4.6947 4.3594,4.8227 4.4184,4.8277 C4.4744,4.8317 5.2034,4.8197 5.2324,4.8777 C5.2634,4.9367 4.5234,4.9667 4.5234,4.9667 C4.5234,4.9667 5.1754,4.9617 5.2094,5.0117 C5.2454,5.0617 4.8514,5.0717 4.8804,5.0797 C4.9144,5.0877 5.3424,5.0717 5.3814,5.1187 C5.4234,5.1687 5.1884,5.2007 5.1884,5.2007 C5.1884,5.2007 5.5434,5.2357 5.5514,5.2337 C5.4664,5.0837 5.2344,4.6797 5.2344,4.6797" id="Fill-56" fill="#487BA2"></path>
                        <path d="M3.6495,3.4658 C3.6215,3.4858 3.7155,3.4978 3.7085,3.5598 C3.7015,3.6028 3.6495,3.6628 3.6285,3.7028 C3.6045,3.7428 3.7305,3.8898 3.8445,3.8108 C3.9595,3.7298 3.9455,3.5858 3.9075,3.5598 C3.8155,3.4978 3.7555,3.4058 3.6495,3.4658" id="Fill-58" fill="#C0003B"></path>
                        <path d="M3.8155,3.8027 C3.8095,3.7867 3.7725,3.7507 3.7405,3.7287 C3.7115,3.7117 3.6665,3.6997 3.6535,3.7097 C3.6545,3.7117 3.6535,3.7237 3.6495,3.7257 C3.6475,3.7257 3.6435,3.7347 3.6425,3.7317 C3.6425,3.7287 3.6455,3.7017 3.6475,3.7007 C3.6675,3.6857 3.7225,3.7067 3.7455,3.7207 C3.7675,3.7347 3.8225,3.7777 3.8155,3.8027" id="Fill-60" fill="#000000"></path>
                        <path d="M3.0264,3.999 C3.1304,3.975 3.1594,4.094 3.1924,4.116 C3.2264,4.136 3.3154,4.145 3.3394,4.158 C3.3624,4.173 3.4514,4.232 3.4514,4.232 C3.4514,4.232 3.4924,4.126 3.5374,4.116 C3.5854,4.105 3.7844,4.244 3.7844,4.244 C3.7844,4.244 3.8054,4.116 3.8594,4.134 C3.9134,4.15 4.1784,4.351 4.1784,4.351 C4.1784,4.351 4.1914,4.28 4.2484,4.261 C4.3054,4.24 4.5024,4.361 4.5024,4.361 C4.5024,4.361 4.5234,4.263 4.5634,4.263 C4.6794,4.263 5.0574,4.673 5.1404,4.683 C5.1784,4.686 5.0024,4.738 5.0024,4.738 C5.0024,4.738 5.0334,4.764 5.0154,4.787 C4.9994,4.81 4.4784,4.791 4.4784,4.791 C4.4784,4.791 4.4934,4.826 4.4844,4.837 C4.4694,4.858 2.2144,4.873 2.2144,4.873 C2.4234,4.51 2.8394,4.042 3.0264,3.999" id="Fill-62" fill="#5B7133"></path>
                        <path d="M3.917,4.8564 C3.995,4.8354 3.94,4.6164 3.509,4.2834 C4.191,4.7564 3.758,4.8224 4.457,4.8414 C4.332,4.8504 3.917,4.8564 3.917,4.8564" id="Fill-64" fill="#263732"></path>
                        <path d="M3.8057,4.2666 C3.8057,4.2666 4.4527,4.7666 4.4807,4.7906 C4.5117,4.7916 4.6177,4.7956 4.6177,4.7956 C4.6177,4.7956 4.5287,4.7896 3.8057,4.2666" id="Fill-66" fill="#263732"></path>
                        <path d="M4.1915,4.3662 C4.1915,4.3662 4.7355,4.7922 4.6485,4.7952 C4.5565,4.7962 4.9455,4.8042 5.0135,4.7902 C4.6625,4.7702 4.7335,4.7562 4.1915,4.3662" id="Fill-68" fill="#263732"></path>
                        <path d="M4.5215,4.3818 L5.0015,4.7378 C5.0015,4.7378 5.0785,4.7168 5.1165,4.6988 C4.9725,4.7218 4.9475,4.6568 4.5215,4.3818" id="Fill-70" fill="#263732"></path>
                        <path d="M3.1114,4.0459 C3.1484,4.0709 3.1594,4.1189 3.1824,4.1339 C3.2054,4.1469 3.4274,4.2509 3.5514,4.3789 C3.6734,4.5069 3.8594,4.6669 3.7934,4.6889 C3.7284,4.7079 3.6644,4.6379 3.6644,4.6379 C3.6644,4.6379 3.7564,4.7889 3.6324,4.7979 C3.5104,4.8099 3.2094,4.3529 3.2094,4.3529 C3.2094,4.3529 3.3524,4.7659 3.1684,4.7479 C2.9824,4.7319 3.0024,4.4349 3.0024,4.4349 C3.0024,4.4349 2.9524,4.5769 2.9164,4.5729 C2.8794,4.5689 2.9164,4.3889 2.9164,4.3889 C2.9164,4.3889 2.7024,4.7449 2.6214,4.7049 C2.5364,4.6639 2.9494,4.0169 3.1114,4.0459" id="Fill-72" fill="#93C438"></path>
                        <path d="M3.5547,4.167 C3.5497,4.134 3.5807,4.144 3.6477,4.178 C3.7137,4.208 4.2477,4.624 4.2347,4.667 C4.2207,4.71 3.5847,4.366 3.5547,4.167" id="Fill-74" fill="#93C438"></path>
                        <path d="M3.9512,4.2363 C3.9092,4.2273 4.3752,4.6993 4.4842,4.6713 C4.5952,4.6393 3.9802,4.2443 3.9512,4.2363" id="Fill-76" fill="#93C438"></path>
                        <path d="M4.2715,4.2773 C4.2205,4.2723 4.7245,4.7283 4.8335,4.7033 C4.9435,4.6823 4.3515,4.2833 4.2715,4.2773" id="Fill-78" fill="#93C438"></path>
                        <path d="M4.5674,4.3027 C4.5114,4.3137 4.9434,4.6457 4.9954,4.6417 C5.0504,4.6387 4.6964,4.2807 4.5674,4.3027" id="Fill-80" fill="#93C438"></path>
                        <path d="M3.0782,3.3779 C3.0782,3.3779 3.3452,3.0669 3.7792,3.0669 C4.2152,3.0669 4.4802,3.3779 4.4802,3.3779 L4.3752,3.1919 C4.3752,3.1919 4.1592,2.9729 3.7812,2.9729 C3.4022,2.9729 3.1872,3.1879 3.1872,3.1879 L3.0782,3.3779 Z" id="Fill-82" fill="#B0008A"></path>
                        <path d="M4.3086,3.0771 C4.3086,3.0771 4.1186,2.9151 3.7796,2.9151 C3.4406,2.9151 3.2516,3.0791 3.2516,3.0791 L3.1636,3.2281 C3.1636,3.2281 3.3696,2.9951 3.7796,2.9951 C4.1916,2.9951 4.3986,3.2291 4.3986,3.2291 L4.3086,3.0771 Z" id="Fill-84" fill="#C0003B"></path>
                        <path d="M4.2432,2.9443 C4.2432,2.9443 4.0702,2.8163 3.7792,2.8163 C3.4902,2.8163 3.3362,2.9333 3.3362,2.9333 L3.2422,3.0933 C3.2422,3.0933 3.4152,2.9223 3.7812,2.9223 C4.1442,2.9223 4.3202,3.0933 4.3202,3.0933 L4.2432,2.9443 Z" id="Fill-86" fill="#F3CD2D"></path>
                        <path d="M4.1612,2.8232 L4.2452,2.9652 C4.2452,2.9652 4.0732,2.8382 3.7792,2.8382 C3.4872,2.8382 3.3122,2.9722 3.3122,2.9722 L3.3962,2.8292 C3.3962,2.8292 3.5152,2.7412 3.7792,2.7412 C4.0452,2.7412 4.1612,2.8232 4.1612,2.8232" id="Fill-88" fill="#93C438"></path>
                        <path d="M4.1026,2.7236 L4.1736,2.8426 C4.1736,2.8426 4.0056,2.7586 3.7796,2.7586 C3.5546,2.7586 3.3746,2.8666 3.3746,2.8666 L3.4426,2.7486 C3.4426,2.7486 3.5626,2.6756 3.7796,2.6756 C4.0006,2.6756 4.1026,2.7236 4.1026,2.7236" id="Fill-90" fill="#6091BE"></path>
                        <path d="M4.0665,2.6591 L4.1215,2.7581 C4.1215,2.7581 4.0165,2.6871 3.7815,2.6871 C3.5445,2.6871 3.4375,2.7581 3.4375,2.7581 L3.4945,2.6551 C3.4945,2.6551 3.5995,2.6161 3.7795,2.6161 C3.9645,2.6161 4.0665,2.6591 4.0665,2.6591" id="Fill-92" fill="#2F4791"></path>
                        <path d="M3.3497,4.9052 L4.2347,4.9132 C4.2347,4.9132 4.0807,4.9312 4.0837,4.9492 C4.0897,4.9672 4.3997,4.9742 4.3997,4.9742 C4.3997,4.9742 4.2087,4.9882 4.2057,5.0092 C4.2007,5.0252 4.2927,5.0352 4.2927,5.0352 C4.2927,5.0352 4.1197,5.0512 4.1197,5.0712 C4.1197,5.0882 4.3407,5.0972 4.3257,5.0972 C4.3077,5.0972 4.0327,5.1002 4.0327,5.1242 C4.0327,5.1462 4.2287,5.1922 4.2287,5.1922 L3.0667,5.2142 C3.0667,5.2142 3.2477,5.1862 3.2477,5.1522 C3.2477,5.1142 3.1207,5.1062 3.1207,5.1062 C3.1207,5.1062 3.5937,5.1142 3.6157,5.0922 C3.6367,5.0712 3.5157,5.0542 3.5157,5.0542 C3.5157,5.0542 3.7047,5.0652 3.7167,5.0442 C3.7307,5.0222 3.4637,4.9842 3.4637,4.9842 C3.4637,4.9842 3.6197,4.9882 3.6427,4.9622 C3.6637,4.9362 3.3497,4.9052 3.3497,4.9052" id="Fill-94" fill="#FFFFFF"></path>
                        <path d="M3.1807,4.9267 C3.1807,4.9267 2.3087,4.9527 2.2337,5.0027 C2.1587,5.0517 2.7207,5.1007 2.7207,5.1007 C2.7207,5.1007 2.1407,5.1067 2.0957,5.1587 C2.0517,5.2137 2.4427,5.2047 2.4427,5.2047 L2.0047,5.2357 L2.2137,4.8757 L3.1807,4.9267 Z" id="Fill-96" fill="#487BA2"></path>
                        <path d="M1.2403,4.9843 C1.2513,5.0123 1.2333,5.0463 1.2033,5.0573 C1.1723,5.0663 1.1403,5.0493 1.1323,5.0203 C1.1223,4.9883 1.1383,4.9563 1.1693,4.9473 C1.1993,4.9363 1.2313,4.9533 1.2403,4.9843" id="Fill-98" fill="#F3CD2D"></path>
                        <path d="M1.5059,5.2373 L1.2959,5.2563 L1.3549,5.3803 L1.5059,5.2373 Z M1.3309,5.5403 C1.2969,5.5713 1.2709,5.5913 1.2939,5.6423 L1.2739,5.6523 L1.1819,5.4533 L1.1989,5.4443 C1.2169,5.4783 1.2299,5.4833 1.2459,5.4763 C1.2569,5.4713 1.2669,5.4633 1.2759,5.4543 L1.3309,5.4023 L1.2629,5.2573 L1.2229,5.2613 C1.2049,5.2633 1.1859,5.2643 1.1709,5.2733 C1.1409,5.2883 1.1429,5.3173 1.1519,5.3443 L1.1339,5.3513 L1.0639,5.2023 L1.0819,5.1923 C1.1209,5.2393 1.1539,5.2373 1.2089,5.2333 L1.5519,5.2023 L1.6159,5.2733 L1.3309,5.5403 Z" id="Fill-100" fill="#F3CD2D"></path>
                        <path d="M1.6397,6.0322 C1.6057,6.0592 1.6057,6.0802 1.6307,6.1162 L1.6147,6.1282 L1.4827,5.9472 L1.4987,5.9342 C1.5257,5.9702 1.5447,5.9752 1.5807,5.9492 L1.8427,5.7552 L1.4357,5.8822 L1.4227,5.8622 L1.6537,5.5142 L1.4497,5.6642 C1.3687,5.7252 1.3617,5.7362 1.3897,5.7842 L1.3727,5.7972 L1.2817,5.6672 L1.2967,5.6572 C1.3377,5.6942 1.3497,5.6982 1.4297,5.6382 L1.6217,5.4952 C1.6597,5.4682 1.6577,5.4462 1.6327,5.4122 L1.6497,5.4002 L1.7577,5.5482 L1.5867,5.8012 L1.8747,5.7122 L1.9807,5.8562 L1.9647,5.8682 C1.9357,5.8332 1.9207,5.8242 1.8817,5.8522 L1.6397,6.0322 Z" id="Fill-102" fill="#F3CD2D"></path>
                        <path d="M1.7149,6.1972 C1.7489,6.2282 1.7679,6.2282 1.7969,6.1962 L1.9979,5.9682 C2.0269,5.9352 2.0259,5.9152 1.9889,5.8852 L2.0039,5.8692 L2.2829,6.1202 L2.2359,6.2342 L2.2159,6.2292 C2.2209,6.1592 2.2029,6.0812 2.1499,6.0352 C2.1089,5.9982 2.0959,6.0112 2.0669,6.0462 L1.9859,6.1372 L1.9939,6.1462 C2.0409,6.1862 2.0679,6.1972 2.1269,6.1652 L2.1429,6.1812 L2.0259,6.3172 L2.0049,6.2992 C2.0349,6.2422 2.0219,6.2082 1.9779,6.1692 L1.9669,6.1592 L1.8779,6.2592 C1.8539,6.2852 1.8409,6.3062 1.8749,6.3352 C1.9319,6.3872 2.0129,6.4012 2.0859,6.3922 L2.0919,6.4092 L1.9809,6.4652 L1.7009,6.2132 L1.7149,6.1972 Z" id="Fill-104" fill="#F3CD2D"></path>
                        <path d="M2.3409,6.414 C2.4259,6.47 2.4709,6.457 2.5069,6.4 C2.5399,6.348 2.5209,6.31 2.4639,6.272 C2.4299,6.252 2.4199,6.263 2.4019,6.294 L2.3299,6.409 L2.3409,6.414 Z M2.4319,6.64 C2.4279,6.689 2.4239,6.732 2.4689,6.765 L2.4569,6.782 L2.3279,6.7 C2.3279,6.682 2.3299,6.66 2.3319,6.642 L2.3429,6.555 C2.3559,6.467 2.3369,6.448 2.3159,6.434 L2.2409,6.552 C2.2189,6.59 2.2229,6.611 2.2619,6.636 L2.2509,6.652 L2.0629,6.533 L2.0729,6.513 C2.1109,6.538 2.1319,6.536 2.1539,6.498 L2.3139,6.24 C2.3349,6.205 2.3299,6.184 2.2929,6.159 L2.3039,6.143 L2.5299,6.285 C2.6079,6.335 2.6299,6.409 2.5939,6.465 C2.5589,6.523 2.4899,6.518 2.4329,6.497 C2.4429,6.518 2.4409,6.542 2.4389,6.564 L2.4319,6.64 Z" id="Fill-106" fill="#F3CD2D"></path>
                        <path d="M2.6915,6.4629 C2.7095,6.4229 2.7025,6.4039 2.6615,6.3859 L2.6705,6.3649 L2.8725,6.4599 L2.8645,6.4789 C2.8235,6.4599 2.8015,6.4649 2.7865,6.5049 L2.6615,6.7799 C2.6435,6.8209 2.6525,6.8409 2.6915,6.8589 L2.6845,6.8789 L2.4815,6.7839 L2.4905,6.7659 C2.5315,6.7839 2.5505,6.7779 2.5695,6.7379 L2.6915,6.4629 Z" id="Fill-108" fill="#F3CD2D"></path>
                        <path d="M3.1875,6.7011 L3.1595,6.7011 C3.1515,6.6361 3.1225,6.5571 3.0535,6.5361 C2.9645,6.5071 2.9095,6.6151 2.8865,6.6851 C2.8395,6.8301 2.8915,6.9131 2.9585,6.9351 C3.0155,6.9531 3.0685,6.9251 3.1115,6.8901 L3.1245,6.9071 C3.0605,6.9661 2.9895,6.9961 2.9045,6.9691 C2.7865,6.9301 2.7345,6.8041 2.7705,6.6891 C2.8085,6.5641 2.9305,6.4701 3.0535,6.5091 C3.0755,6.5161 3.0905,6.5261 3.1035,6.5361 C3.1165,6.5461 3.1275,6.5561 3.1385,6.5611 C3.1555,6.5641 3.1735,6.5621 3.1875,6.5611 L3.1945,6.5591 L3.1875,6.7011 Z" id="Fill-110" fill="#F3CD2D"></path>
                        <path d="M3.3526,6.664 L3.2486,6.851 L3.3836,6.876 L3.3526,6.664 Z M3.4996,6.985 C3.5086,7.031 3.5086,7.063 3.5646,7.074 L3.5606,7.095 L3.3446,7.06 L3.3476,7.04 C3.3876,7.045 3.3986,7.038 3.4026,7.019 C3.4036,7.006 3.4026,6.995 3.4006,6.981 L3.3886,6.906 L3.2326,6.881 L3.2126,6.916 C3.2036,6.933 3.1946,6.949 3.1926,6.967 C3.1866,6.998 3.2126,7.015 3.2406,7.022 L3.2356,7.043 L3.0746,7.015 L3.0776,6.995 C3.1356,6.989 3.1536,6.959 3.1806,6.912 L3.3516,6.608 L3.4466,6.594 L3.4996,6.985 Z" id="Fill-112" fill="#F3CD2D"></path>
                        <path d="M4.1397,6.7451 L4.1127,6.7551 C4.0807,6.6971 4.0257,6.6361 3.9547,6.6391 C3.8617,6.6451 3.8467,6.7661 3.8507,6.8411 C3.8617,6.9911 3.9407,7.0511 4.0077,7.0471 C4.0707,7.0431 4.1067,6.9961 4.1337,6.9481 L4.1527,6.9591 C4.1147,7.0381 4.0597,7.0921 3.9697,7.0981 C3.8447,7.1051 3.7527,7.0041 3.7447,6.8861 C3.7367,6.7551 3.8167,6.6221 3.9457,6.6131 C3.9687,6.6131 3.9867,6.6171 4.0027,6.6211 C4.0187,6.6261 4.0317,6.6301 4.0437,6.6291 C4.0597,6.6271 4.0737,6.6201 4.0877,6.6111 L4.0957,6.6081 L4.1397,6.7451 Z" id="Fill-114" fill="#F3CD2D"></path>
                        <path d="M4.2266,7.0429 C4.2706,7.0329 4.2836,7.0149 4.2716,6.9729 L4.2046,6.6769 C4.1956,6.6359 4.1746,6.6259 4.1326,6.6359 L4.1286,6.6149 L4.4936,6.5299 L4.5566,6.6359 L4.5406,6.6469 C4.4876,6.6039 4.4136,6.5729 4.3446,6.5889 C4.2906,6.6029 4.2946,6.6199 4.3056,6.6669 L4.3316,6.7839 L4.3456,6.7819 C4.4056,6.7689 4.4306,6.7509 4.4356,6.6859 L4.4586,6.6789 L4.5016,6.8559 L4.4786,6.8619 C4.4466,6.8039 4.4126,6.7969 4.3516,6.8119 L4.3406,6.8139 L4.3706,6.9429 C4.3786,6.9779 4.3856,7.0009 4.4306,6.9909 C4.5046,6.9739 4.5616,6.9159 4.5966,6.8499 L4.6136,6.8539 L4.5966,6.9779 L4.2306,7.0639 L4.2266,7.0429 Z" id="Fill-116" fill="#F3CD2D"></path>
                        <path d="M5.0059,6.6621 L4.9229,6.4701 C4.9009,6.4231 4.8849,6.3951 4.8259,6.4171 L4.8179,6.3951 L4.9669,6.3311 L4.9769,6.3491 C4.9259,6.3831 4.9299,6.4061 4.9519,6.4561 L5.0919,6.7781 L5.0389,6.8001 L4.6689,6.5731 L4.7639,6.7961 C4.7919,6.8581 4.8029,6.8681 4.8689,6.8531 L4.8769,6.8731 L4.7159,6.9431 L4.7069,6.9251 C4.7589,6.8911 4.7609,6.8701 4.7359,6.8171 L4.6229,6.5521 C4.5999,6.5401 4.5689,6.5361 4.5429,6.5421 L4.5339,6.5221 L4.6779,6.4591 L5.0059,6.6621 Z" id="Fill-118" fill="#F3CD2D"></path>
                        <path d="M5.2989,6.0976 L5.3969,6.1836 L5.3819,6.2016 C5.3299,6.1806 5.2529,6.1616 5.2029,6.1966 L5.4029,6.4896 C5.4259,6.5266 5.4459,6.5306 5.4829,6.5026 L5.4939,6.5206 L5.3119,6.6476 L5.3009,6.6296 C5.3379,6.6066 5.3419,6.5846 5.3169,6.5486 L5.1179,6.2536 C5.0699,6.2946 5.0579,6.3636 5.0599,6.4236 L5.0369,6.4326 L4.9909,6.3096 L5.2989,6.0976 Z" id="Fill-120" fill="#F3CD2D"></path>
                        <path d="M5.5938,6.1103 C5.6678,6.0393 5.6658,5.9913 5.6188,5.9443 C5.5748,5.8983 5.5338,5.9073 5.4868,5.9553 C5.4548,5.9833 5.4668,5.9983 5.4908,6.0213 L5.5858,6.1183 L5.5938,6.1103 Z M5.8318,6.0733 C5.8778,6.0873 5.9198,6.1003 5.9598,6.0663 L5.9748,6.0813 L5.8648,6.1893 C5.8458,6.1833 5.8278,6.1783 5.8088,6.1713 L5.7288,6.1403 C5.6468,6.1093 5.6228,6.1203 5.6058,6.1403 L5.7018,6.2403 C5.7338,6.2713 5.7538,6.2703 5.7848,6.2383 L5.7998,6.2543 L5.6418,6.4103 L5.6268,6.3953 C5.6578,6.3653 5.6578,6.3433 5.6308,6.3123 L5.4218,6.0953 C5.3898,6.0643 5.3678,6.0663 5.3378,6.0963 L5.3228,6.0823 L5.5128,5.8933 C5.5808,5.8293 5.6538,5.8243 5.7018,5.8713 C5.7478,5.9213 5.7288,5.9863 5.6938,6.0393 C5.7158,6.0323 5.7398,6.0413 5.7598,6.0493 L5.8318,6.0733 Z" id="Fill-122" fill="#F3CD2D"></path>
                        <path d="M5.8018,5.6572 L5.9218,5.8362 L5.9988,5.7222 L5.8018,5.6572 Z M6.1478,5.6642 C6.1948,5.6792 6.2228,5.6922 6.2558,5.6482 L6.2728,5.6612 L6.1468,5.8392 L6.1298,5.8272 C6.1508,5.7922 6.1488,5.7822 6.1348,5.7692 C6.1258,5.7632 6.1138,5.7592 6.1008,5.7552 L6.0288,5.7312 L5.9368,5.8612 L5.9598,5.8962 C5.9708,5.9102 5.9818,5.9272 5.9978,5.9372 C6.0218,5.9552 6.0488,5.9382 6.0678,5.9172 L6.0838,5.9302 L5.9868,6.0642 L5.9708,6.0542 C5.9898,5.9982 5.9728,5.9682 5.9428,5.9212 L5.7498,5.6332 L5.7768,5.5412 L6.1478,5.6642 Z" id="Fill-124" fill="#F3CD2D"></path>
                        <path d="M6.2647,5.624 C6.2857,5.58 6.2797,5.561 6.2407,5.541 L5.9727,5.406 C5.9337,5.387 5.9137,5.395 5.8947,5.436 L5.8757,5.427 L5.9747,5.226 L5.9937,5.234 C5.9727,5.274 5.9797,5.297 6.0177,5.314 L6.2867,5.449 C6.3187,5.464 6.3347,5.473 6.3547,5.431 C6.3887,5.362 6.3717,5.28 6.3437,5.212 L6.3567,5.201 L6.4517,5.292 L6.2837,5.633 L6.2647,5.624 Z" id="Fill-126" fill="#F3CD2D"></path>
                        <path d="M6.3116,4.9843 C6.3206,4.9553 6.3546,4.9373 6.3826,4.9483 C6.4146,4.9573 6.4286,4.9883 6.4196,5.0203 C6.4106,5.0503 6.3766,5.0673 6.3496,5.0573 C6.3186,5.0473 6.3026,5.0153 6.3116,4.9843" id="Fill-128" fill="#F3CD2D"></path>
                        <path d="M1.1348,4.6367 C1.1188,4.5327 1.0798,4.5077 1.0158,4.5207 C0.9528,4.5297 0.9368,4.5687 0.9458,4.6347 C0.9528,4.6757 0.9698,4.6757 1.0048,4.6707 L1.1368,4.6477 L1.1348,4.6367 Z M1.2438,4.4197 C1.2808,4.3897 1.3178,4.3637 1.3118,4.3077 L1.3328,4.3057 L1.3568,4.4607 C1.3418,4.4727 1.3238,4.4817 1.3088,4.4927 L1.2388,4.5417 C1.1628,4.5917 1.1598,4.6177 1.1648,4.6437 L1.3028,4.6207 C1.3458,4.6157 1.3568,4.5967 1.3498,4.5537 L1.3708,4.5487 L1.4048,4.7727 L1.3848,4.7757 C1.3768,4.7307 1.3618,4.7167 1.3198,4.7247 L1.0228,4.7707 C0.9788,4.7787 0.9678,4.7957 0.9748,4.8407 L0.9548,4.8447 L0.9138,4.5767 C0.8998,4.4837 0.9408,4.4197 1.0048,4.4097 C1.0728,4.3997 1.1138,4.4537 1.1338,4.5117 C1.1448,4.4907 1.1628,4.4767 1.1838,4.4637 L1.2438,4.4197 Z" id="Fill-130" fill="#F3CD2D"></path>
                        <path d="M1.3155,4.2832 C1.3175,4.2382 1.3025,4.2222 1.2595,4.2212 L0.9605,4.2082 C0.9165,4.2062 0.9015,4.2222 0.9015,4.2682 L0.8805,4.2662 L0.8945,3.8882 L1.0115,3.8522 L1.0195,3.8732 C0.9635,3.9132 0.9165,3.9762 0.9145,4.0472 C0.9125,4.1022 0.9305,4.1042 0.9745,4.1052 L1.0975,4.1112 L1.0975,4.0972 C1.0995,4.0362 1.0905,4.0072 1.0285,3.9832 L1.0285,3.9592 L1.2095,3.9672 L1.2095,3.9912 C1.1445,4.0062 1.1295,4.0382 1.1265,4.0972 L1.1265,4.1112 L1.2565,4.1172 C1.2925,4.1172 1.3175,4.1162 1.3195,4.0712 C1.3225,3.9912 1.2815,3.9232 1.2255,3.8722 L1.2345,3.8542 L1.3495,3.9052 L1.3355,4.2832 L1.3155,4.2832 Z" id="Fill-132" fill="#F3CD2D"></path>
                        <path d="M1.1612,3.6269 L1.1712,3.5919 C1.1862,3.5169 1.1672,3.4769 1.0962,3.4599 C1.0302,3.4459 0.9932,3.4759 0.9802,3.5339 C0.9702,3.5829 0.9892,3.5869 1.0302,3.5989 L1.1612,3.6269 Z M1.1852,3.6319 L1.3132,3.6599 C1.3562,3.6719 1.3722,3.6589 1.3832,3.6129 L1.4022,3.6179 L1.3542,3.8389 L1.3332,3.8329 C1.3442,3.7899 1.3332,3.7709 1.2922,3.7629 L0.9992,3.6959 C0.9572,3.6879 0.9402,3.6979 0.9312,3.7419 L0.9102,3.7389 L0.9592,3.5169 C0.9892,3.3799 1.0582,3.3399 1.1172,3.3559 C1.2292,3.3799 1.2152,3.4919 1.1972,3.5779 L1.1852,3.6319 Z" id="Fill-134" fill="#F3CD2D"></path>
                        <path d="M1.3477,3.248 C1.4507,3.293 1.4937,3.271 1.5207,3.21 C1.5537,3.124 1.5127,3.078 1.4297,3.043 L1.2277,2.959 C1.1867,2.943 1.1687,2.953 1.1517,2.995 L1.1317,2.987 L1.1907,2.843 L1.2087,2.851 C1.1927,2.893 1.1997,2.912 1.2387,2.93 L1.4457,3.015 C1.5447,3.056 1.5807,3.122 1.5347,3.235 C1.4887,3.352 1.4127,3.387 1.3247,3.351 L1.1067,3.261 C1.0657,3.244 1.0467,3.253 1.0307,3.296 L1.0117,3.286 L1.0957,3.079 L1.1137,3.087 C1.0977,3.128 1.1037,3.147 1.1447,3.166 L1.3477,3.248 Z" id="Fill-136" fill="#F3CD2D"></path>
                        <path d="M1.6036,2.8506 C1.6506,2.8806 1.6676,2.8936 1.7016,2.8376 C1.7366,2.7876 1.7346,2.7326 1.6676,2.6906 C1.6206,2.6606 1.5746,2.6516 1.5126,2.7496 L1.4936,2.7806 L1.6036,2.8506 Z M1.4886,2.7346 C1.5296,2.6666 1.5276,2.6216 1.4726,2.5886 C1.4166,2.5536 1.3786,2.5746 1.3476,2.6256 C1.3396,2.6366 1.3316,2.6556 1.3326,2.6686 C1.3376,2.6806 1.3496,2.6876 1.3586,2.6926 L1.4706,2.7646 L1.4886,2.7346 Z M1.5996,3.0426 L1.5826,3.0326 C1.6056,2.9956 1.6016,2.9716 1.5666,2.9486 L1.3136,2.7866 C1.2776,2.7636 1.2566,2.7686 1.2336,2.8056 L1.2146,2.7946 L1.3356,2.6046 C1.4226,2.4676 1.4826,2.4646 1.5296,2.4946 C1.5826,2.5296 1.5746,2.6026 1.5536,2.6546 L1.5536,2.6556 C1.6016,2.6036 1.6626,2.5566 1.7326,2.6026 C1.7946,2.6416 1.8056,2.7136 1.7416,2.8166 L1.5996,3.0426 Z" id="Fill-138" fill="#F3CD2D"></path>
                        <path d="M1.834,2.6396 C1.865,2.6066 1.865,2.5846 1.832,2.5566 L1.611,2.3526 C1.577,2.3236 1.558,2.3256 1.527,2.3586 L1.513,2.3446 L1.662,2.1776 L1.677,2.1926 C1.647,2.2256 1.647,2.2466 1.679,2.2766 L1.9,2.4796 C1.928,2.5046 1.941,2.5156 1.972,2.4796 C2.023,2.4236 2.029,2.3426 2.02,2.2676 L2.035,2.2606 L2.1,2.3736 L1.849,2.6546 L1.834,2.6396 Z" id="Fill-140" fill="#F3CD2D"></path>
                        <path d="M1.9415,2.0146 C1.9145,1.9816 1.8905,1.9806 1.8575,2.0096 L1.8445,1.9936 L2.0155,1.8496 L2.0295,1.8656 C1.9945,1.8966 1.9905,1.9146 2.0195,1.9506 L2.2105,2.1826 C2.2395,2.2166 2.2595,2.2166 2.2945,2.1886 L2.3065,2.2026 L2.1355,2.3476 L2.1235,2.3316 C2.1565,2.3016 2.1585,2.2826 2.1315,2.2476 L1.9415,2.0146 Z" id="Fill-142" fill="#F3CD2D"></path>
                        <path d="M2.4737,1.6982 L2.4567,1.7212 C2.4017,1.6842 2.3227,1.6572 2.2617,1.6952 C2.1837,1.7472 2.2307,1.8602 2.2677,1.9222 C2.3497,2.0522 2.4457,2.0632 2.5047,2.0242 C2.5567,1.9932 2.5677,1.9352 2.5697,1.8792 L2.5897,1.8802 C2.5937,1.9662 2.5707,2.0402 2.4947,2.0902 C2.3907,2.1572 2.2617,2.1152 2.1987,2.0122 C2.1287,1.9022 2.1337,1.7492 2.2447,1.6792 C2.2617,1.6672 2.2807,1.6622 2.2957,1.6572 C2.3107,1.6532 2.3247,1.6502 2.3347,1.6442 C2.3497,1.6342 2.3577,1.6212 2.3657,1.6072 L2.3697,1.6002 L2.4737,1.6982 Z" id="Fill-144" fill="#F3CD2D"></path>
                        <path d="M2.6915,1.5361 L2.6975,1.7501 L2.8235,1.6981 L2.6915,1.5361 Z M2.9805,1.7311 C3.0115,1.7671 3.0265,1.7961 3.0805,1.7751 L3.0875,1.7961 L2.8865,1.8781 L2.8775,1.8591 C2.9125,1.8421 2.9205,1.8321 2.9125,1.8141 C2.9095,1.8031 2.8985,1.7921 2.8915,1.7821 L2.8435,1.7231 L2.6975,1.7831 L2.6985,1.8261 C2.7005,1.8421 2.7005,1.8621 2.7085,1.8791 C2.7185,1.9091 2.7505,1.9091 2.7775,1.9001 L2.7855,1.9201 L2.6315,1.9811 L2.6245,1.9621 C2.6705,1.9251 2.6705,1.8921 2.6705,1.8371 L2.6595,1.4891 L2.7335,1.4261 L2.9805,1.7311 Z" id="Fill-146" fill="#F3CD2D"></path>
                        <path d="M3.4249,1.6474 C3.4279,1.6934 3.4299,1.7074 3.4859,1.7014 C3.5629,1.6924 3.6149,1.6414 3.5959,1.4694 C3.5779,1.3174 3.5169,1.2834 3.4339,1.2934 C3.3859,1.2964 3.3889,1.3174 3.3909,1.3554 L3.4249,1.6474 Z M3.2699,1.7294 C3.3149,1.7234 3.3279,1.7094 3.3229,1.6634 L3.2909,1.3634 C3.2859,1.3194 3.2699,1.3054 3.2249,1.3114 L3.2219,1.2934 L3.4379,1.2684 C3.4769,1.2634 3.5109,1.2634 3.5439,1.2724 C3.6259,1.2954 3.6939,1.3634 3.7049,1.4724 C3.7169,1.5764 3.6659,1.6584 3.5939,1.6964 C3.5629,1.7124 3.5269,1.7214 3.4869,1.7254 L3.2739,1.7494 L3.2699,1.7294 Z" id="Fill-148" fill="#F3CD2D"></path>
                        <path d="M3.7364,1.6797 C3.7834,1.6837 3.7984,1.6697 3.8004,1.6247 L3.8224,1.3217 C3.8244,1.2807 3.8094,1.2647 3.7654,1.2607 L3.7674,1.2417 L4.1394,1.2657 L4.1724,1.3857 L4.1524,1.3937 C4.1124,1.3367 4.0524,1.2837 3.9804,1.2807 C3.9254,1.2777 3.9254,1.2957 3.9224,1.3427 L3.9154,1.4637 L3.9254,1.4637 C3.9884,1.4677 4.0164,1.4597 4.0424,1.3987 L4.0664,1.3997 L4.0544,1.5807 L4.0294,1.5787 C4.0164,1.5147 3.9864,1.4967 3.9254,1.4947 L3.9114,1.4927 L3.9044,1.6247 C3.9004,1.6617 3.9024,1.6867 3.9474,1.6887 C4.0234,1.6957 4.0964,1.6567 4.1484,1.6017 L4.1654,1.6117 L4.1114,1.7257 L3.7364,1.6997 L3.7364,1.6797 Z" id="Fill-150" fill="#F3CD2D"></path>
                        <path d="M4.7295,1.749 L4.7975,1.55 C4.8135,1.497 4.8195,1.468 4.7615,1.444 L4.7675,1.424 L4.9245,1.477 L4.9155,1.495 C4.8565,1.487 4.8435,1.509 4.8265,1.561 L4.7175,1.893 L4.6635,1.874 L4.5395,1.454 L4.4615,1.684 C4.4425,1.747 4.4445,1.763 4.5015,1.796 L4.4955,1.816 L4.3295,1.76 L4.3345,1.739 C4.3945,1.749 4.4105,1.735 4.4285,1.684 L4.5215,1.407 C4.5095,1.381 4.4915,1.356 4.4655,1.345 L4.4745,1.324 L4.6235,1.375 L4.7295,1.749 Z" id="Fill-152" fill="#F3CD2D"></path>
                        <path d="M4.9932,1.6064 C5.0142,1.5664 5.0042,1.5464 4.9652,1.5274 L4.9762,1.5084 L5.1722,1.6104 L5.1652,1.6284 C5.1242,1.6074 5.1032,1.6124 5.0852,1.6534 L4.9512,1.9214 C4.9302,1.9614 4.9392,1.9814 4.9772,2.0024 L4.9692,2.0204 L4.7702,1.9194 L4.7792,1.9004 C4.8192,1.9204 4.8402,1.9154 4.8582,1.8774 L4.9932,1.6064 Z" id="Fill-154" fill="#F3CD2D"></path>
                        <path d="M5.4942,1.9756 L5.4672,1.9656 C5.4792,1.9006 5.4722,1.8176 5.4132,1.7776 C5.3342,1.7246 5.2512,1.8126 5.2092,1.8736 C5.1262,1.9986 5.1522,2.0936 5.2092,2.1326 C5.2602,2.1686 5.3162,2.1556 5.3682,2.1336 L5.3762,2.1536 C5.2992,2.1926 5.2222,2.2026 5.1472,2.1496 C5.0462,2.0786 5.0312,1.9446 5.0982,1.8446 C5.1702,1.7356 5.3132,1.6796 5.4182,1.7516 C5.4372,1.7646 5.4502,1.7806 5.4592,1.7936 C5.4702,1.8056 5.4792,1.8176 5.4882,1.8236 C5.5022,1.8326 5.5172,1.8366 5.5342,1.8376 L5.5412,1.8376 L5.4942,1.9756 Z" id="Fill-156" fill="#F3CD2D"></path>
                        <path d="M5.7286,2.1103 L5.5366,2.2023 L5.6336,2.2973 L5.7286,2.1103 Z M5.6676,2.4553 C5.6446,2.4983 5.6266,2.5263 5.6676,2.5653 L5.6516,2.5813 L5.4966,2.4283 L5.5106,2.4133 C5.5416,2.4393 5.5516,2.4403 5.5646,2.4273 C5.5736,2.4183 5.5816,2.4053 5.5836,2.3953 L5.6196,2.3273 L5.5066,2.2143 L5.4696,2.2343 C5.4546,2.2413 5.4356,2.2513 5.4236,2.2643 C5.4026,2.2853 5.4136,2.3133 5.4316,2.3363 L5.4176,2.3493 L5.2986,2.2343 L5.3136,2.2193 C5.3676,2.2483 5.3966,2.2343 5.4466,2.2123 L5.7576,2.0633 L5.8446,2.1053 L5.6676,2.4553 Z" id="Fill-158" fill="#F3CD2D"></path>
                        <path d="M5.9659,2.6064 C6.0239,2.6914 6.0699,2.6994 6.1239,2.6604 C6.1739,2.6264 6.1729,2.5814 6.1349,2.5264 C6.1119,2.4924 6.0989,2.5014 6.0699,2.5194 L5.9589,2.5944 L5.9659,2.6064 Z M5.9599,2.8504 C5.9369,2.8924 5.9179,2.9324 5.9449,2.9784 L5.9279,2.9904 L5.8409,2.8624 C5.8479,2.8424 5.8599,2.8294 5.8689,2.8094 L5.9119,2.7354 C5.9589,2.6594 5.9489,2.6344 5.9359,2.6114 L5.8199,2.6914 C5.7829,2.7174 5.7819,2.7374 5.8079,2.7754 L5.7909,2.7864 L5.6639,2.6014 L5.6819,2.5894 C5.7069,2.6264 5.7269,2.6304 5.7619,2.6064 L6.0099,2.4364 C6.0459,2.4124 6.0489,2.3894 6.0239,2.3524 L6.0399,2.3424 L6.1929,2.5644 C6.2419,2.6414 6.2359,2.7174 6.1799,2.7544 C6.1229,2.7934 6.0619,2.7604 6.0219,2.7174 C6.0219,2.7414 6.0069,2.7614 5.9959,2.7824 L5.9599,2.8504 Z" id="Fill-160" fill="#F3CD2D"></path>
                        <path d="M6.379,3.0683 L6.165,3.0743 L6.217,3.2033 L6.379,3.0683 Z M6.188,3.3603 C6.149,3.3903 6.123,3.4093 6.143,3.4623 L6.124,3.4703 L6.04,3.2663 L6.061,3.2573 C6.076,3.2943 6.086,3.2983 6.105,3.2933 C6.115,3.2893 6.126,3.2803 6.135,3.2713 L6.194,3.2213 L6.135,3.0743 L6.092,3.0773 C6.076,3.0783 6.055,3.0793 6.04,3.0843 C6.012,3.0963 6.01,3.1283 6.02,3.1563 L5.999,3.1623 L5.937,3.0083 L5.957,2.9993 C5.992,3.0483 6.026,3.0483 6.08,3.0473 L6.426,3.0353 L6.486,3.1093 L6.188,3.3603 Z" id="Fill-162" fill="#F3CD2D"></path>
                        <path d="M6.5274,3.7978 L6.5144,3.7778 C6.5774,3.7078 6.6094,3.6628 6.5984,3.6068 C6.5864,3.5448 6.5184,3.4958 6.3634,3.5288 C6.2104,3.5598 6.1634,3.6178 6.1774,3.6888 C6.1924,3.7548 6.2424,3.7548 6.2984,3.7438 C6.3494,3.7338 6.3504,3.7198 6.3434,3.6718 L6.3664,3.6668 L6.4104,3.8758 L6.3864,3.8798 C6.3704,3.8308 6.3564,3.8278 6.3094,3.8388 L6.2184,3.8578 C6.2084,3.8138 6.2084,3.8108 6.1884,3.7738 C6.1714,3.7438 6.1584,3.7178 6.1504,3.6858 C6.1244,3.5518 6.1974,3.4498 6.3254,3.4248 C6.4514,3.3998 6.5924,3.4618 6.6204,3.5968 C6.6264,3.6128 6.6244,3.6318 6.6224,3.6478 C6.6204,3.6598 6.6184,3.6738 6.6204,3.6868 C6.6244,3.7008 6.6374,3.7228 6.6484,3.7338 L6.5274,3.7978 Z" id="Fill-164" fill="#F3CD2D"></path>
                        <path d="M6.3663,4.0449 C6.2563,4.0459 6.2223,4.0829 6.2243,4.1499 C6.2253,4.2409 6.2813,4.2689 6.3723,4.2669 L6.5903,4.2629 C6.6333,4.2609 6.6463,4.2459 6.6443,4.1999 L6.6663,4.1999 L6.6703,4.3569 L6.6483,4.3569 C6.6483,4.3099 6.6343,4.2949 6.5913,4.2949 L6.3663,4.2999 C6.2603,4.3029 6.2003,4.2549 6.1993,4.1339 C6.1973,4.0059 6.2533,3.9429 6.3493,3.9409 L6.5853,3.9379 C6.6273,3.9369 6.6383,3.9209 6.6383,3.8759 L6.6593,3.8759 L6.6643,4.1009 L6.6443,4.1009 C6.6423,4.0549 6.6293,4.0419 6.5863,4.0419 L6.3663,4.0449 Z" id="Fill-166" fill="#F3CD2D"></path>
                        <path d="M6.5645,4.6064 L6.3785,4.5024 L6.3585,4.6374 L6.5645,4.6064 Z M6.2505,4.7554 C6.2025,4.7614 6.1685,4.7624 6.1605,4.8194 L6.1405,4.8164 L6.1735,4.5964 L6.1945,4.6004 C6.1905,4.6414 6.1955,4.6514 6.2125,4.6534 C6.2255,4.6574 6.2405,4.6534 6.2515,4.6524 L6.3255,4.6434 L6.3545,4.4834 L6.3145,4.4634 C6.3005,4.4564 6.2835,4.4464 6.2665,4.4444 C6.2355,4.4384 6.2185,4.4644 6.2105,4.4934 L6.1925,4.4884 L6.2185,4.3244 L6.2385,4.3284 C6.2465,4.3874 6.2735,4.4054 6.3205,4.4304 L6.6205,4.6054 L6.6335,4.6994 L6.2505,4.7554 Z" id="Fill-168" fill="#F3CD2D"></path>
                    </g>
                </g>
            </g>
        </g>
    </g>
</svg>