<?xml version="1.0" encoding="UTF-8"?>
<svg width="43px" height="31px" viewBox="0 0 43 31" version="1.1" xmlns="http://www.w3.org/2000/svg" xmlns:xlink="http://www.w3.org/1999/xlink">
    <title>Group 22</title>
    <defs>
        <polygon id="path-1" points="0 30 43 30 43 0 0 0"></polygon>
    </defs>
    <g id="Page-1" stroke="none" stroke-width="1" fill="none" fill-rule="evenodd">
        <g id="Mobile" transform="translate(-181.000000, -122.000000)">
            <g id="Group-22" transform="translate(181.000000, 122.264959)">
                <polygon id="Fill-1" fill="#FFFFFF" points="0 30 43 30 43 0 0 0"></polygon>
                <polygon id="Path" fill="#3E73B7" points="14 5.73504118 43 5.73504118 43 2.73504118 14 2.73504118"></polygon>
                <polygon id="Path" fill="#3E73B7" points="14 12.7350412 43 12.7350412 43 9.73504118 14 9.73504118"></polygon>
                <polygon id="Path" fill="#3E73B7" points="0 19.7350412 43 19.7350412 43 16.7350412 0 16.7350412"></polygon>
                <polygon id="Path" fill="#3E73B7" points="0 26.7350412 43 26.7350412 43 23.7350412 0 23.7350412"></polygon>
                <mask id="mask-2" fill="white">
                    <use xlink:href="#path-1"></use>
                </mask>
                <g id="Clip-54"></g>
                <g id="Group-20" mask="url(#mask-2)">
                    <g transform="translate(1.594794, 3.593529)">
                        <path d="M5.30556765,5.30405 L5.42697941,7.33516765 C3.55015588,8.69219706 4.70862647,9.49022647 3.35033235,9.92781471 C4.26850882,9.01343235 3.07209706,9.01343235 4.10789118,6.93678529" id="Fill-3" fill="#EAC126"></path>
                        <path d="M3.62957941,8.93147941 C3.59037353,8.53309706 3.51069706,8.01456765 4.07096176,6.93703824 L4.14937353,6.97750882 C3.62957941,8.05503824 3.67131471,8.53309706 3.75099118,8.93147941 L3.62957941,8.93147941 Z M3.31213824,9.92806765 C3.71052059,9.48921471 3.71052059,9.25018529 3.62957941,8.93147941 L3.75099118,8.93147941 C3.79019706,9.25018529 3.82813824,9.52968529 3.39181471,9.96853824 L3.31213824,9.92806765 Z M3.39181471,9.96853824 L3.19072647,10.04695 L3.31213824,9.92806765 L3.35007941,9.92806765 L3.39181471,9.96853824 Z M4.22905,9.05289118 C4.10763824,9.48921471 4.02922647,9.76871471 3.39181471,9.96853824 L3.35007941,9.88759706 C3.95081471,9.69030294 4.02922647,9.40953824 4.10763824,9.05289118 L4.22905,9.05289118 Z M5.46593235,7.37715588 C4.46681471,8.09424412 4.34666765,8.65197941 4.22905,9.05289118 L4.10763824,9.05289118 C4.22905,8.61277353 4.38840294,8.01456765 5.38499118,7.29621471 L5.46593235,7.37715588 Z M5.34705,5.30430294 L5.46593235,7.33542059 L5.38499118,7.33542059 L5.22690294,5.30430294 L5.34705,5.30430294 Z" id="Fill-5" fill="#292C2F"></path>
                        <path d="M4.02973235,8.85243529 C3.95132059,9.37096471 3.86911471,9.76934706 3.39105588,9.96917059 L3.35058529,9.88696471 C3.79070294,9.68967059 3.82864412,9.32796471 3.90958529,8.81322941 L4.02973235,8.85243529 Z M4.66714412,6.85799412 C4.18908529,7.69522941 4.07020294,8.33390588 4.02973235,8.85243529 L3.90958529,8.81322941 C3.98926176,8.33390588 4.10814412,7.65602353 4.58873235,6.81878824 L4.66714412,6.85799412 Z" id="Fill-7" fill="#292C2F"></path>
                        <path d="M5.30556765,5.30405 L5.14621471,3.22866765 C7.01924412,1.87416765 5.86456765,1.07360882 7.22159706,0.639814706 C6.34009706,1.59466765 7.50109706,1.59466765 6.46277353,3.62957941" id="Fill-9" fill="#EAC126"></path>
                        <path d="M6.94197059,1.63589706 C6.97864706,2.03301471 7.06085294,2.55280882 6.50058824,3.66701471 L6.42217647,3.62907353 C6.94197059,2.55280882 6.90023529,2.03301471 6.82055882,1.67510294 L6.94197059,1.63589706 Z M7.25941176,0.67725 C6.86102941,1.11610294 6.86102941,1.31592647 6.94197059,1.63589706 L6.82055882,1.67510294 C6.78135294,1.31592647 6.73961765,1.07689706 7.17973529,0.597573529 L7.25941176,0.67725 Z M7.17973529,0.597573529 L7.38082353,0.557102941 L7.25941176,0.67725 L7.22147059,0.639308824 L7.17973529,0.597573529 Z M6.33997059,1.51575 C6.46264706,1.11610294 6.54232353,0.796132353 7.17973529,0.597573529 L7.22147059,0.67725 C6.62073529,0.875808824 6.54232353,1.15657353 6.46264706,1.55495588 L6.33997059,1.51575 Z M5.10814706,3.22942647 C6.10220588,2.51107353 6.26155882,1.95586765 6.33997059,1.51575 L6.46264706,1.55495588 C6.33997059,1.99254412 6.18188235,2.55280882 5.18655882,3.26989706 L5.10814706,3.22942647 Z M5.22702941,5.30354412 L5.10814706,3.26989706 L5.18655882,3.22942647 L5.34717647,5.30354412 L5.22702941,5.30354412 Z" id="Fill-11" fill="#292C2F"></path>
                        <path d="M6.58254118,1.75326176 C6.66095294,1.19805588 6.70268824,0.83635 7.18074706,0.597320588 L7.22121765,0.676997059 C6.7811,0.876820588 6.73936471,1.23726176 6.66095294,1.75326176 L6.58254118,1.75326176 Z M5.90465882,3.70723235 C6.38271765,2.86999706 6.5016,2.23258529 6.58254118,1.75326176 L6.66095294,1.75326176 C6.58254118,2.27179118 6.46239412,2.91173235 5.98307059,3.74770294 L5.90465882,3.70723235 Z" id="Fill-13" fill="#292C2F"></path>
                        <path d="M5.30556765,5.30405 L3.23018529,5.42293235 C1.87695,3.54863824 1.07765588,4.70457941 0.640067647,3.34881471 C1.59618529,4.26699118 1.55571471,3.10978529 3.62983235,4.10763824" id="Fill-15" fill="#EAC126"></path>
                        <path d="M1.63741471,3.66764706 C2.03326765,3.58923529 2.55559118,3.50829412 3.67106176,4.06602941 L3.59012059,4.14570588 C2.51385588,3.62970588 2.03326765,3.70685294 1.67535588,3.74732353 L1.63741471,3.66764706 Z M0.678767647,3.34894118 C1.11888529,3.74732353 1.31744412,3.70685294 1.63741471,3.66764706 L1.67535588,3.74732353 C1.31744412,3.78905882 1.07841471,3.82826471 0.600355882,3.39067647 L0.678767647,3.34894118 Z M0.600355882,3.39067647 L0.520679412,3.22879412 L0.678767647,3.34894118 L0.639561765,3.34894118 L0.600355882,3.39067647 Z M1.51726765,4.22664706 C1.11888529,4.10776471 0.79765,4.02808824 0.600355882,3.39067647 L0.678767647,3.34894118 C0.878591176,3.94714706 1.15682647,4.02808824 1.51726765,4.14570588 L1.51726765,4.22664706 Z M3.19173824,5.46352941 C2.51385588,4.46567647 1.95612059,4.34552941 1.51726765,4.22664706 L1.51726765,4.14570588 C1.99532647,4.26711765 2.55559118,4.38473529 3.27141471,5.42305882 L3.19173824,5.46352941 Z M5.30506176,5.34211765 L3.23094412,5.50147059 L3.23094412,5.38132353 L5.26585588,5.26117647 L5.30506176,5.34211765 Z" id="Fill-17" fill="#292C2F"></path>
                        <path d="M1.75591765,4.02821471 C1.19691765,3.94727353 0.839005882,3.86886176 0.599976471,3.39080294 L0.678388235,3.34906765 C0.879476471,3.78918529 1.23738824,3.86886176 1.75591765,3.90553824 L1.75591765,4.02821471 Z M3.71115294,4.70483235 C2.87265294,4.18503824 2.23524118,4.10662647 1.75591765,4.02821471 L1.75591765,3.90553824 C2.27444706,3.98647941 2.91312353,4.10662647 3.75035882,4.62389118 L3.71115294,4.70483235 Z" id="Fill-19" fill="#292C2F"></path>
                        <path d="M5.30556765,5.30405 L7.34047941,5.14343235 C8.69497941,7.01646176 9.49427353,5.90099118 9.93059706,7.21755 C8.97447941,6.33731471 9.01368529,7.49578529 6.94209706,6.45746176" id="Fill-21" fill="#EAC126"></path>
                        <path d="M8.93413529,6.93678529 C8.53701765,6.97725588 8.01595882,7.05693235 6.94222353,6.49919706 L6.9789,6.41952059 C8.05769412,6.97725588 8.53701765,6.89631471 8.89492941,6.85837353 L8.93413529,6.93678529 Z M9.89278235,7.25675588 C9.49313529,6.85837353 9.25410588,6.89631471 8.93413529,6.93678529 L8.89492941,6.85837353 C9.25410588,6.77743235 9.49313529,6.73949118 9.97119412,7.17455 L9.89278235,7.25675588 Z M9.97119412,7.21755 L10.0508706,7.37816765 L9.89278235,7.25675588 L9.93072353,7.21755 L9.97119412,7.21755 Z M9.05428235,6.38031471 C9.45266471,6.45746176 9.7739,6.53840294 9.97119412,7.21755 L9.89278235,7.21755 C9.69295882,6.61807941 9.41345882,6.53840294 9.05428235,6.45746176 L9.05428235,6.38031471 Z M7.37981176,5.10296176 C8.05769412,6.10081471 8.61669412,6.25890294 9.05428235,6.38031471 L9.05428235,6.45746176 C8.57622353,6.33731471 8.01595882,6.18049118 7.29887059,5.18263824 L7.37981176,5.10296176 Z M5.26648824,5.26105 L7.34060588,5.10296176 L7.34060588,5.18263824 L5.30569412,5.34199118 L5.26648824,5.26105 Z" id="Fill-23" fill="#292C2F"></path>
                        <path d="M8.85509118,6.57862059 C9.37362059,6.65829706 9.73153235,6.69623824 9.97182647,7.21729706 L9.89215,7.25650294 C9.69232647,6.77717941 9.33441471,6.73923824 8.81588529,6.65829706 L8.85509118,6.57862059 Z M6.86065,5.90073824 C7.69915,6.38006176 8.33782647,6.50020882 8.85509118,6.57862059 L8.81588529,6.65829706 C8.33782647,6.57862059 7.65867941,6.50020882 6.82144412,5.98041471 L6.86065,5.90073824 Z" id="Fill-25" fill="#292C2F"></path>
                        <path d="M5.30556765,5.30405 L3.95106765,6.85837353 C1.63792059,6.45746176 1.87695,7.85749118 0.640067647,7.21755 C1.95662647,7.17455 1.11812647,6.38031471 3.27192059,5.62149118" id="Fill-27" fill="#EAC126"></path>
                        <path d="M1.55584118,6.69598529 C1.79487059,6.37980882 2.11357647,5.98142647 3.27078235,5.58051471 L3.31251765,5.66145588 C2.15657647,6.05983824 1.83534118,6.45822059 1.63678235,6.77692647 L1.55584118,6.69598529 Z M0.638929412,7.17530882 C1.23713529,7.13863235 1.35728235,6.97801471 1.55584118,6.69598529 L1.63678235,6.77692647 C1.43569412,7.05642647 1.27507647,7.25625 0.638929412,7.25625 L0.638929412,7.17530882 Z M0.599723529,7.25625 L0.439105882,7.17530882 L0.638929412,7.17530882 L0.638929412,7.21704412 L0.599723529,7.25625 Z M1.87707647,7.21704412 C1.5179,7.41686765 1.23713529,7.57369118 0.599723529,7.25625 L0.638929412,7.17530882 C1.23713529,7.45607353 1.47742941,7.33592647 1.79487059,7.13863235 L1.87707647,7.21704412 Z M3.95119412,6.89580882 C2.75351765,6.69598529 2.23498824,6.97801471 1.87707647,7.21704412 L1.79487059,7.13863235 C2.19325294,6.89580882 2.71304706,6.57836765 3.95119412,6.77692647 L3.95119412,6.89580882 Z M5.30569412,5.30354412 L3.98913529,6.85786765 L3.90945882,6.81866176 L5.26648824,5.26054412 L5.30569412,5.30354412 Z" id="Fill-29" fill="#292C2F"></path>
                        <path d="M1.87695,6.89606176 C1.43556765,7.21729706 1.15733235,7.45506176 0.638802941,7.25650294 L0.638802941,7.17556176 C1.11812647,7.33617941 1.39636176,7.13762059 1.83521471,6.81765 L1.87695,6.89606176 Z M3.74997941,5.98041471 C2.79512647,6.21944412 2.27406765,6.61782647 1.87695,6.89606176 L1.83521471,6.81765 C2.23486176,6.53815 2.75339118,6.13976765 3.71077353,5.90073824 L3.74997941,5.98041471 Z" id="Fill-31" fill="#292C2F"></path>
                        <path d="M5.30556765,5.30405 L6.62086176,3.74846176 C8.93400882,4.10763824 8.69497941,2.71013824 9.93059706,3.34881471 C8.61656765,3.39055 9.45253824,4.22652059 7.29874412,4.94487353" id="Fill-33" fill="#EAC126"></path>
                        <path d="M9.01317941,3.86898824 C8.77415,4.18516471 8.45797353,4.58481176 7.29950294,4.98445882 L7.25903235,4.90351765 C8.41497353,4.54307647 8.73620882,4.10675294 8.93476765,3.82851765 L9.01317941,3.86898824 Z M9.93135588,3.42760588 C9.33441471,3.42760588 9.21426765,3.62995882 9.01317941,3.86898824 L8.93476765,3.82851765 C9.17506176,3.54901765 9.29647353,3.34919412 9.93135588,3.31125294 L9.93135588,3.42760588 Z M9.97182647,3.31125294 L10.1324441,3.39092941 L9.93135588,3.42760588 L9.93135588,3.34919412 L9.97182647,3.31125294 Z M8.69447353,3.39092941 C9.09412059,3.1519 9.33441471,3.03048824 9.97182647,3.31125294 L9.93135588,3.39092941 C9.33441471,3.1089 9.09412059,3.26951765 8.77415,3.46934118 L8.69447353,3.39092941 Z M6.62035588,3.70710588 C7.81803235,3.90566471 8.33782647,3.58822353 8.69447353,3.39092941 L8.77415,3.46934118 C8.37829706,3.70710588 7.85850294,3.98660588 6.62035588,3.78931176 L6.62035588,3.70710588 Z M5.26585588,5.26142941 L6.58241471,3.70710588 L6.66209118,3.78931176 L5.30506176,5.30442941 L5.26585588,5.26142941 Z" id="Fill-35" fill="#292C2F"></path>
                        <path d="M8.6946,3.66764706 C9.13598235,3.34894118 9.45342353,3.15164706 9.93148235,3.311 L9.93148235,3.39067647 C9.45342353,3.22879412 9.17518824,3.46908824 8.73633529,3.74732353 L8.6946,3.66764706 Z M6.82157059,4.58582353 C7.77768824,4.38473529 8.29748235,3.98635294 8.6946,3.66764706 L8.73633529,3.74732353 C8.33795294,4.06602941 7.81815882,4.46567647 6.86077647,4.70470588 L6.82157059,4.58582353 Z" id="Fill-37" fill="#292C2F"></path>
                        <path d="M5.30556765,5.30405 L3.75124412,3.94702059 C4.10789118,1.63640294 2.71292059,1.87416765 3.35033235,0.639814706 C3.39080294,1.95637353 4.22803824,1.11660882 4.94765588,3.27040294" id="Fill-39" fill="#EAC126"></path>
                        <path d="M3.86911471,1.55445 C4.18908529,1.79347941 4.58873235,2.11345 4.98585,3.26939118 L4.90617353,3.31112647 C4.50779118,2.15392059 4.10687941,1.87442059 3.82864412,1.63539118 L3.86911471,1.55445 Z M3.39105588,0.638802941 C3.43152647,1.23700882 3.58961471,1.35589118 3.86911471,1.55445 L3.82864412,1.63539118 C3.55040882,1.43430294 3.35058529,1.27621471 3.31264412,0.638802941 L3.39105588,0.638802941 Z M3.31264412,0.638802941 L3.39105588,0.478185294 L3.39105588,0.638802941 L3.35058529,0.638802941 L3.31264412,0.638802941 Z M3.39105588,1.87442059 C3.15202647,1.51650882 2.99267353,1.23700882 3.31264412,0.638802941 L3.39105588,0.678008824 C3.11155588,1.23700882 3.27090882,1.47603824 3.47073235,1.83521471 L3.39105588,1.87442059 Z M3.71102647,3.94727353 C3.86911471,2.75086176 3.58961471,2.23233235 3.39105588,1.87442059 L3.47073235,1.83521471 C3.67182059,2.23233235 3.98926176,2.71039118 3.79070294,3.94727353 L3.71102647,3.94727353 Z M5.26535,5.34224412 L3.71102647,3.98647941 L3.79070294,3.90553824 L5.30582059,5.26130294 L5.26535,5.34224412 Z" id="Fill-41" fill="#292C2F"></path>
                        <path d="M3.67156765,1.87429412 C3.35033235,1.43417647 3.15177353,1.15720588 3.31239118,0.638676471 L3.39080294,0.638676471 C3.23018529,1.11547059 3.43253824,1.39623529 3.74997941,1.83508824 L3.67156765,1.87429412 Z M4.58974412,3.74732353 C4.38739118,2.79247059 3.98900882,2.27141176 3.67156765,1.87429412 L3.74997941,1.83508824 C4.06995,2.23220588 4.46706765,2.75073529 4.70862647,3.74732353 L4.58974412,3.74732353 Z" id="Fill-43" fill="#292C2F"></path>
                        <path d="M5.30556765,5.30405 L6.82068529,6.61807941 C6.46277353,8.93122647 7.85900882,8.69219706 7.22159706,9.92781471 C7.17986176,8.65172647 6.34009706,9.49022647 5.62680294,7.29596176" id="Fill-45" fill="#EAC126"></path>
                        <path d="M6.70243529,9.01292647 C6.38246471,8.81310294 5.98408235,8.49186765 5.5857,7.29672059 L5.66537647,7.29672059 C6.06375882,8.41092647 6.46340588,8.73089706 6.73911176,8.97119118 L6.70243529,9.01292647 Z M7.18049412,9.92857353 C7.14002353,9.37083824 6.97940588,9.21022059 6.70243529,9.01292647 L6.73911176,8.97119118 C7.01987647,9.16975 7.22096471,9.28989706 7.25890588,9.92857353 L7.18049412,9.92857353 Z M7.25890588,9.96904412 L7.18049412,10.1283971 L7.18049412,9.92857353 L7.22096471,9.92857353 L7.25890588,9.96904412 Z M7.18049412,8.73089706 C7.41952353,9.09133824 7.57887647,9.37083824 7.25890588,9.96904412 L7.18049412,9.92857353 C7.45999412,9.37083824 7.29937647,9.09133824 7.09828824,8.77263235 L7.18049412,8.73089706 Z M6.86052353,6.65930882 C6.70243529,7.85698529 6.97940588,8.33377941 7.18049412,8.73089706 L7.09828824,8.77263235 C6.89972941,8.37298529 6.58228824,7.85698529 6.78084706,6.61757353 L6.86052353,6.65930882 Z M5.3062,5.26054412 L6.86052353,6.57836765 L6.82131765,6.65930882 L5.26572941,5.34275 L5.3062,5.26054412 Z" id="Fill-47" fill="#292C2F"></path>
                        <path d="M6.89998235,8.69181765 C7.22121765,9.13193529 7.41977647,9.45064118 7.25915882,9.96917059 L7.18074706,9.9287 C7.34136471,9.45064118 7.13901176,9.16987647 6.82157059,8.77149412 L6.89998235,8.69181765 Z M5.98307059,6.81878824 C6.22462941,7.77490588 6.58254118,8.29343529 6.89998235,8.69181765 L6.82157059,8.77149412 C6.5016,8.33390588 6.10195294,7.81537647 5.90465882,6.85799412 L5.98307059,6.81878824 Z" id="Fill-49" fill="#292C2F"></path>
                        <polyline id="Fill-51" fill="#EAC126" points="5.30556765 5.30405 6.18200882 5.30405 5.30556765 10.3274618 4.38739118 5.30405 5.30556765 5.30405 5.30556765 10.3274618"></polyline>
                        <path d="M5.22576471,10.3275882 L5.34717647,10.3275882 L5.34717647,5.30417647 L5.22576471,5.30417647 L5.22576471,10.3275882 Z M4.38726471,5.34211765 L5.30544118,5.34211765 L5.30544118,5.26117647 L4.38726471,5.26117647 L4.38726471,5.34211765 Z M5.22702941,10.3275882 L4.31011765,5.30417647 L4.429,5.30417647 L5.34717647,10.3275882 L5.22702941,10.3275882 Z M5.34717647,10.3275882 L5.30544118,10.5666176 L5.22702941,10.3275882 L5.30544118,10.3275882 L5.34717647,10.3275882 Z M6.26155882,5.30417647 L5.34717647,10.3275882 L5.22702941,10.3275882 L6.14267647,5.30417647 L6.26155882,5.30417647 Z M5.30544118,5.34211765 L6.18188235,5.34211765 L6.18188235,5.26117647 L5.30544118,5.26117647 L5.30544118,5.34211765 Z" id="Fill-53" fill="#292C2F"></path>
                        <polyline id="Fill-55" fill="#EAC126" points="5.30556765 5.30405 4.38739118 5.30405 5.30556765 0.238902941 6.18200882 5.30405 5.30556765 5.30405 5.30556765 0.238902941"></polyline>
                        <path d="M5.22702941,5.30417647 L5.34844118,5.30417647 L5.34844118,0.239029412 L5.22702941,0.239029412 L5.22702941,5.30417647 Z M5.30544118,5.34211765 L6.18188235,5.34211765 L6.18188235,5.26117647 L5.30544118,5.26117647 L5.30544118,5.34211765 Z M5.34717647,0.239029412 L6.26155882,5.30417647 L6.14267647,5.30417647 L5.22702941,0.2795 L5.34717647,0.239029412 Z M5.22702941,0.239029412 L5.30544118,-1.85407245e-14 L5.34717647,0.239029412 L5.30544118,0.239029412 L5.22702941,0.239029412 Z M4.31011765,5.30417647 L5.22702941,0.239029412 L5.34717647,0.2795 L4.429,5.30417647 L4.31011765,5.30417647 Z M4.38726471,5.34211765 L5.30544118,5.34211765 L5.30544118,5.26117647 L4.38726471,5.26117647 L4.38726471,5.34211765 Z" id="Fill-56" fill="#292C2F"></path>
                        <polyline id="Fill-57" fill="#EAC126" points="5.30556765 5.30405 5.30556765 6.21969706 0.240420588 5.30405 5.30556765 4.38460882 5.30556765 5.30405 0.240420588 5.30405"></polyline>
                        <path d="M0.240294118,5.34211765 L5.30544118,5.34211765 L5.30544118,5.26117647 L0.240294118,5.26117647 L0.240294118,5.34211765 Z M5.22576471,5.30417647 L5.34717647,5.30417647 L5.34717647,4.38473529 L5.22576471,4.38473529 L5.22576471,5.30417647 Z M0.240294118,5.26117647 L5.26623529,4.34552941 L5.30544118,4.42647059 L0.280764706,5.34211765 L0.240294118,5.26117647 Z M0.240294118,5.34211765 L1.66533454e-15,5.30417647 L0.240294118,5.26117647 L0.240294118,5.30417647 L0.240294118,5.34211765 Z M5.26623529,6.25902941 L0.240294118,5.34211765 L0.280764706,5.26117647 L5.30544118,6.18061765 L5.26623529,6.25902941 Z M5.22576471,6.21982353 L5.34717647,6.21982353 L5.34717647,5.30417647 L5.22576471,5.30417647 L5.22576471,6.21982353 Z" id="Fill-58" fill="#292C2F"></path>
                        <polyline id="Fill-59" fill="#EAC126" points="5.30556765 5.30405 5.30556765 4.38460882 10.3315088 5.30405 5.30556765 6.21969706 5.30556765 5.30405 10.3315088 5.30405"></polyline>
                        <path d="M5.30544118,5.34211765 L10.3313824,5.34211765 L10.3313824,5.26117647 L5.30544118,5.26117647 L5.30544118,5.34211765 Z M5.22702941,6.21982353 L5.34844118,6.21982353 L5.34844118,5.30417647 L5.22702941,5.30417647 L5.22702941,6.21982353 Z M10.3313824,5.34211765 L5.30544118,6.25902941 L5.26623529,6.18061765 L10.2909118,5.26117647 L10.3313824,5.34211765 Z M10.3313824,5.26117647 L10.5716765,5.30417647 L10.3313824,5.34211765 L10.3313824,5.30417647 L10.3313824,5.26117647 Z M5.30544118,4.34552941 L10.3313824,5.26117647 L10.2909118,5.34211765 L5.26623529,4.42647059 L5.30544118,4.34552941 Z M5.22702941,5.30417647 L5.34844118,5.30417647 L5.34844118,4.38473529 L5.22702941,4.38473529 L5.22702941,5.30417647 Z" id="Fill-60" fill="#292C2F"></path>
                        <polyline id="Fill-61" fill="#EAC126" points="5.30556765 5.30405 5.94424412 5.94146176 1.71633235 8.85281471 4.62768529 4.62363824 5.30556765 5.30405 1.71633235 8.85281471"></polyline>
                        <path d="M5.30556765,5.34237059 L1.75553824,8.89113529 L1.71633235,8.81272353 L5.26636176,5.26142941 L5.30556765,5.34237059 Z M4.66689118,4.62401765 L5.30556765,5.26142941 L5.26636176,5.34237059 L4.58974412,4.66322353 L4.66689118,4.62401765 Z M1.67586176,8.81272353 L4.58974412,4.62401765 L4.66689118,4.66322353 L1.75553824,8.89113529 L1.67586176,8.81272353 Z M1.75553824,8.89113529 L1.55571471,9.05301765 L1.67586176,8.81272353 L1.71633235,8.85192941 L1.75553824,8.89113529 Z M5.94424412,5.98104706 L1.75553824,8.89113529 L1.71633235,8.81272353 L5.90503824,5.90010588 L5.94424412,5.98104706 Z M5.30556765,5.26142941 L5.98345,5.90010588 L5.90503824,5.98104706 L5.26636176,5.34237059 L5.30556765,5.26142941 Z" id="Fill-62" fill="#292C2F"></path>
                        <polyline id="Fill-63" fill="#EAC126" points="5.30556765 5.30405 4.62768529 4.62363824 8.85559706 1.71607941 5.94424412 5.94146176 5.30556765 5.30405 8.85559706 1.71607941"></polyline>
                        <path d="M5.26598235,5.26079706 L8.81601176,1.71582647 L8.89442353,1.75376765 L5.30518824,5.34173824 L5.26598235,5.26079706 Z M5.90465882,5.98041471 L5.26598235,5.34173824 L5.30518824,5.26079706 L5.98307059,5.90073824 L5.90465882,5.98041471 Z M8.89442353,1.75376765 L5.98307059,5.98041471 L5.90465882,5.90073824 L8.81601176,1.71582647 L8.89442353,1.75376765 Z M8.81601176,1.67535588 L9.01330588,1.55394412 L8.89442353,1.75376765 L8.85521765,1.71582647 L8.81601176,1.67535588 Z M4.62730588,4.62338529 L8.81601176,1.67535588 L8.85521765,1.75376765 L4.66651176,4.66259118 L4.62730588,4.62338529 Z M5.26598235,5.34173824 L4.58936471,4.66259118 L4.66651176,4.62338529 L5.30518824,5.26079706 L5.26598235,5.34173824 Z" id="Fill-64" fill="#292C2F"></path>
                        <polyline id="Fill-65" fill="#EAC126" points="5.30556765 5.30405 4.62768529 5.94146176 1.71633235 1.71607941 5.94424412 4.62363824 5.30556765 5.30405 1.71633235 1.71607941"></polyline>
                        <path d="M5.26598235,5.34237059 L1.71595294,1.75313529 L1.75642353,1.71645882 L5.30518824,5.26142941 L5.26598235,5.34237059 Z M5.98307059,4.66322353 L5.30518824,5.34237059 L5.26598235,5.26142941 L5.90465882,4.62401765 L5.98307059,4.66322353 Z M1.75642353,1.67598824 L5.94386471,4.62401765 L5.90465882,4.66322353 L1.71595294,1.75313529 L1.75642353,1.67598824 Z M1.67548235,1.75313529 L1.55533529,1.55457647 L1.75642353,1.67598824 L1.71595294,1.71645882 L1.67548235,1.75313529 Z M4.58936471,5.98104706 L1.67548235,1.75313529 L1.75642353,1.71645882 L4.66651176,5.90010588 L4.58936471,5.98104706 Z M5.30518824,5.34237059 L4.66651176,5.98104706 L4.58936471,5.90010588 L5.26598235,5.26142941 L5.30518824,5.34237059 Z" id="Fill-66" fill="#292C2F"></path>
                        <polyline id="Fill-67" fill="#EAC126" points="5.30556765 5.30405 5.94424412 4.62363824 8.85559706 8.85281471 4.62768529 5.94146176 5.30556765 5.30405 8.85559706 8.85281471"></polyline>
                        <path d="M5.30556765,5.26079706 L8.89480294,8.81335588 L8.81512647,8.89050294 L5.26636176,5.34173824 L5.30556765,5.26079706 Z M4.58974412,5.90073824 L5.26636176,5.26079706 L5.30556765,5.34173824 L4.66689118,5.98041471 L4.58974412,5.90073824 Z M8.81512647,8.89050294 L4.62768529,5.98041471 L4.66689118,5.90073824 L8.85559706,8.81335588 L8.81512647,8.89050294 Z M8.89480294,8.81335588 L9.01368529,9.05238529 L8.81512647,8.89050294 L8.85559706,8.85256176 L8.89480294,8.81335588 Z M5.98345,4.62338529 L8.89480294,8.81335588 L8.81512647,8.89050294 L5.90503824,4.66259118 L5.98345,4.62338529 Z M5.26636176,5.26079706 L5.90503824,4.62338529 L5.98345,4.66259118 L5.30556765,5.34173824 L5.26636176,5.26079706 Z" id="Fill-68" fill="#292C2F"></path>
                        <path d="M6.97902647,5.30405 C6.97902647,4.34540294 6.22146765,3.62957941 5.30582059,3.62957941 C4.34717353,3.62957941 3.58961471,4.34540294 3.58961471,5.30405 C3.58961471,6.21969706 4.34717353,6.97725588 5.30582059,6.97725588 C6.22146765,6.97725588 6.97902647,6.21969706 6.97902647,5.30405" id="Fill-69" fill="#EAC126"></path>
                        <path d="M6.42205,6.45758824 C6.73949118,6.14014706 6.90010882,5.74176471 6.90010882,5.30417647 L7.02025588,5.30417647 C7.02025588,5.78223529 6.82043235,6.18061765 6.50046176,6.49932353 L6.42205,6.45758824 Z M5.30531471,6.93691176 C5.74669706,6.93691176 6.14255,6.73961765 6.42205,6.45758824 L6.50046176,6.49932353 C6.18302059,6.81802941 5.74669706,7.01658824 5.30531471,7.01658824 L5.30531471,6.93691176 Z M4.14937353,6.45758824 C4.42887353,6.73961765 4.82472647,6.93691176 5.30531471,6.93691176 L5.30531471,7.01658824 C4.82472647,7.01658824 4.38840294,6.81802941 4.07096176,6.49932353 L4.14937353,6.45758824 Z M3.67131471,5.30417647 C3.67131471,5.74176471 3.82813824,6.14014706 4.14937353,6.45758824 L4.07096176,6.49932353 C3.75099118,6.18061765 3.54990294,5.78223529 3.54990294,5.30417647 L3.67131471,5.30417647 Z M4.14937353,4.14570588 C3.82813824,4.42647059 3.67131471,4.82611765 3.67131471,5.30417647 L3.54990294,5.30417647 C3.54990294,4.82611765 3.75099118,4.38473529 4.07096176,4.06602941 L4.14937353,4.14570588 Z M5.30531471,3.66764706 C4.82472647,3.66764706 4.42887353,3.82826471 4.14937353,4.14570588 L4.07096176,4.06602941 C4.38840294,3.74732353 4.82472647,3.54876471 5.30531471,3.54876471 L5.30531471,3.66764706 Z M6.42205,4.14570588 C6.14255,3.82826471 5.74669706,3.66764706 5.30531471,3.66764706 L5.30531471,3.54876471 C5.74669706,3.54876471 6.18302059,3.74732353 6.50046176,4.06602941 L6.42205,4.14570588 Z M6.90010882,5.30417647 C6.90010882,4.82611765 6.73949118,4.42647059 6.42205,4.14570588 L6.50046176,4.06602941 C6.82043235,4.38473529 7.02025588,4.82611765 7.02025588,5.30417647 L6.90010882,5.30417647 Z" id="Fill-70" fill="#292C2F"></path>
                        <path d="M6.50109412,4.62351176 C6.42268235,4.74492353 6.34047647,4.54383529 5.98382941,4.54383529 C5.58544706,4.54383529 5.54497647,4.74492353 5.46656471,4.70445294 C5.42609412,4.66271765 5.78400588,4.38574706 5.90415294,4.38574706 C6.02303529,4.34527647 6.38221176,4.46542353 6.50109412,4.62351176" id="Fill-71" fill="#292C2F"></path>
                        <path d="M6.06388529,4.74454412 C6.18276765,4.86469118 6.10182647,5.06577941 5.98420882,5.06577941 C5.86532647,5.06577941 5.66550294,4.86469118 5.78312059,4.74454412" id="Fill-72" fill="#292C2F"></path>
                        <path d="M5.58582647,4.90389706 C5.58582647,4.70533824 5.74644412,4.66360294 5.98294412,4.66360294 C6.22197353,4.66360294 6.34085588,4.86469118 6.42179706,4.90389706 C6.34085588,4.90389706 6.22197353,4.74454412 5.98294412,4.74454412 C5.74644412,4.74454412 5.74644412,4.74454412 5.58582647,4.90389706" id="Fill-73" fill="#292C2F"></path>
                        <path d="M5.62667647,4.94462059 C5.66461765,4.86494412 5.74682353,5.02303235 5.94411765,5.02303235 C6.10220588,5.02303235 6.18188235,4.98382647 6.30329412,4.90415 C6.38297059,4.82573824 6.14267647,5.10270882 5.98332353,5.10270882 C5.82523529,5.10270882 5.58620588,4.98382647 5.62667647,4.94462059" id="Fill-74" fill="#292C2F"></path>
                        <path d="M6.14292941,5.02366471 C6.34022353,4.94525294 6.22134118,4.78337059 6.14292941,4.74416471 C6.18213529,4.78337059 6.30354706,4.94525294 6.14292941,5.02366471" id="Fill-75" fill="#292C2F"></path>
                        <path d="M5.30556765,5.94133529 C5.38397941,5.94133529 5.42697941,5.90086471 5.54459706,5.90086471 C5.66474412,5.90086471 5.94424412,6.10068824 6.10233235,6.02227647 C5.74695,6.18036471 5.90503824,6.06021765 5.30556765,6.06021765 L5.22715588,6.06021765" id="Fill-76" fill="#292C2F"></path>
                        <path d="M6.18238824,6.18099706 C6.10271176,6.05958529 6.14318235,6.10132059 5.98382941,5.90023235 C6.14318235,6.02290882 6.14318235,6.05958529 6.18238824,6.18099706" id="Fill-77" fill="#292C2F"></path>
                        <path d="M5.30556765,6.29836176 C5.66474412,6.29836176 5.62680294,6.21995 6.10233235,6.02265588 C5.74695,6.06059706 5.66474412,6.18074412 5.30556765,6.18074412 L5.22715588,6.18074412" id="Fill-78" fill="#292C2F"></path>
                        <path d="M5.30556765,5.74125882 C5.38397941,5.74125882 5.42697941,5.66158235 5.54459706,5.66158235 C5.66474412,5.66158235 5.82536176,5.70205294 5.90503824,5.78172941 C5.94424412,5.78172941 5.86456765,5.66158235 5.74695,5.66158235 C5.62680294,5.62111176 5.66474412,5.42255294 5.54459706,5.38208235 C5.54459706,5.46302353 5.58633235,5.46302353 5.58633235,5.54396471 C5.58633235,5.62111176 5.46618529,5.62111176 5.42697941,5.54396471 C5.46618529,5.66158235 5.34730294,5.66158235 5.30556765,5.66158235" id="Fill-79" fill="#292C2F"></path>
                        <path d="M4.07045588,4.62351176 C4.14886765,4.74492353 4.22854412,4.54383529 4.58898529,4.54383529 C4.98610294,4.54383529 5.02657353,4.74492353 5.10751471,4.70445294 C5.14672059,4.66271765 4.78754412,4.38574706 4.66739706,4.38574706 C4.54851471,4.34527647 4.18933824,4.46542353 4.07045588,4.62351176" id="Fill-80" fill="#292C2F"></path>
                        <path d="M4.50766471,4.74454412 C4.38751765,4.86469118 4.46719412,5.06577941 4.58860588,5.06577941 C4.70875294,5.06577941 4.90604706,4.86469118 4.78842941,4.74454412" id="Fill-81" fill="#292C2F"></path>
                        <path d="M4.98559706,4.90389706 C4.98559706,4.70533824 4.82497941,4.66360294 4.58974412,4.66360294 C4.34692059,4.66360294 4.22803824,4.86469118 4.14962647,4.90389706 C4.26850882,4.90389706 4.34692059,4.74454412 4.58974412,4.74454412 C4.82497941,4.74454412 4.82497941,4.74454412 4.98559706,4.90389706" id="Fill-82" fill="#292C2F"></path>
                        <path d="M4.94740294,4.94462059 C4.90693235,4.86494412 4.82472647,5.02303235 4.62743235,5.02303235 C4.46681471,5.02303235 4.38840294,4.98382647 4.26825588,4.90415 C4.18857941,4.82573824 4.42887353,5.10270882 4.58949118,5.10270882 C4.78805,5.10270882 4.98534412,4.98382647 4.94740294,4.94462059" id="Fill-83" fill="#292C2F"></path>
                        <path d="M4.42862059,5.02366471 C4.22879706,4.94525294 4.34767941,4.78337059 4.42862059,4.74416471 C4.38815,4.78337059 4.26800294,4.94525294 4.42862059,5.02366471" id="Fill-84" fill="#292C2F"></path>
                        <path d="M5.30556765,5.94133529 C5.18668529,5.94133529 5.14621471,5.90086471 5.02606765,5.90086471 C4.90718529,5.90086471 4.62768529,6.10068824 4.46706765,6.02227647 C4.82497941,6.18036471 4.66689118,6.06021765 5.30556765,6.06021765 L5.34730294,6.06021765" id="Fill-85" fill="#292C2F"></path>
                        <path d="M4.38789706,6.18099706 C4.46630882,6.05958529 4.46630882,6.10132059 4.58898529,5.90023235 C4.46630882,6.02290882 4.42836765,6.05958529 4.38789706,6.18099706" id="Fill-86" fill="#292C2F"></path>
                        <path d="M5.30556765,6.29836176 C4.90718529,6.29836176 4.98559706,6.21995 4.46706765,6.02265588 C4.82497941,6.06059706 4.90718529,6.18074412 5.30556765,6.18074412 L5.34730294,6.18074412" id="Fill-87" fill="#292C2F"></path>
                        <path d="M5.30556765,5.74125882 C5.18668529,5.74125882 5.14621471,5.66158235 5.02606765,5.66158235 C4.90718529,5.66158235 4.74656765,5.70205294 4.66689118,5.78172941 C4.62768529,5.78172941 4.70862647,5.66158235 4.82497941,5.66158235 C4.94765588,5.62111176 4.90718529,5.42255294 5.02606765,5.38208235 C5.02606765,5.46302353 4.98559706,5.46302353 4.98559706,5.54396471 C4.98559706,5.62111176 5.10827353,5.62111176 5.14621471,5.54396471 C5.10827353,5.66158235 5.22715588,5.66158235 5.30556765,5.66158235" id="Fill-88" fill="#292C2F"></path>
                        <path d="M5.30556765,6.45758824 C5.22715588,6.45758824 5.02606765,6.49932353 5.30556765,6.49932353 C5.54459706,6.49932353 5.34730294,6.45758824 5.30556765,6.45758824" id="Fill-89" fill="#292C2F"></path>
                    </g>
                </g>
            </g>
        </g>
    </g>
</svg>