<?xml version="1.0" encoding="UTF-8"?>
<svg width="43px" height="30px" viewBox="0 0 43 30" version="1.1" xmlns="http://www.w3.org/2000/svg" xmlns:xlink="http://www.w3.org/1999/xlink">
    <title>Group 16</title>
    <g id="Page-1" stroke="none" stroke-width="1" fill="none" fill-rule="evenodd">
        <g id="Mobile" transform="translate(-86.000000, -122.000000)">
            <g id="Group-15" transform="translate(86.000000, 122.000000)">
                <polygon id="Fill-1" fill="#2F3C85" points="0 29.9989882 43 29.9989882 43 -0.00101176471 0 -0.00101176471"></polygon>
                <path d="M0,7.41623529 L42.4473235,7.41623529 L0,7.41623529 Z M0,17.3441765 L42.4473235,17.3441765 L0,17.3441765 Z" id="Fill-2" fill="#292C2F"></path>
                <path d="M0,12 L43,12 L43,6 L0,6 L0,12 Z M0,25 L43,25 L43,19 L0,19 L0,25 Z" id="Fill-3" fill="#FFFFFF"></path>
                <polygon id="Fill-4" fill="#D80031" points="0 -0.00101176471 0 29.9989882 21.4089412 15.0242704"></polygon>
                <g id="Group-13" transform="translate(3.196418, 10.252712)" fill="#FFFFFF">
                    <polygon id="Fill-5" points="3.95220588 -1.0658141e-13 2.67485294 3.90920588 4.63135294 4.54661765"></polygon>
                    <polygon id="Fill-6" points="3.95220588 -1.0658141e-13 5.19035294 3.90920588 3.23385294 4.54661765"></polygon>
                    <polygon id="Fill-7" points="7.86735588 2.87277941 3.75200294 2.87277941 3.75200294 4.90389706"></polygon>
                    <polygon id="Fill-8" points="7.86735588 2.87277941 4.51335588 5.26433824 3.31441471 3.62907353"></polygon>
                    <polygon id="Fill-9" points="-7.06101844e-13 2.87277941 3.354 5.26433824 4.55294118 3.62907353"></polygon>
                    <polygon id="Fill-10" points="1.50990331e-14 2.87277941 4.15455882 2.87277941 4.15455882 4.90389706"></polygon>
                    <polygon id="Fill-11" points="6.35072059 7.45607353 5.07083824 3.55066176 3.11433824 4.18807353"></polygon>
                    <polygon id="Fill-12" points="6.35072059 7.45607353 3.03845588 5.02530882 4.23107353 3.38877941"></polygon>
                    <polygon id="Fill-13" points="1.51663529 7.45607353 4.83142941 5.02530882 3.63375294 3.38877941"></polygon>
                    <polygon id="Fill-14" points="1.51663529 7.45607353 2.79398824 3.55066176 4.75301765 4.18807353"></polygon>
                </g>
            </g>
        </g>
    </g>
</svg>