<?xml version="1.0" encoding="UTF-8"?><svg id="Capa_2" xmlns="http://www.w3.org/2000/svg" viewBox="0 0 23.65 23.65"><defs><style>.cls-1{fill:#3c3c3c;stroke-width:0px;}</style></defs><g id="Capa_1-2"><path class="cls-1" d="m11.83,0C8.57,0,8.18,0,7,.1c-1.28.1-2.07.3-2.86.59-.79.2-1.48.59-2.17,1.28s-1.08,1.28-1.38,2.07c-.3.79-.49,1.58-.59,2.86v4.93c0,3.25,0,3.65.1,4.83.1,1.28.3,2.07.59,2.86.3.79.69,1.48,1.38,2.07.69.69,1.28,1.08,2.07,1.38s1.58.49,2.86.59c1.18.1,1.58.1,4.83.1s3.65,0,4.83-.1c1.28-.1,2.07-.3,2.86-.59s1.48-.69,2.07-1.38c.69-.69,1.08-1.28,1.38-2.07s.49-1.58.59-2.86c.1-1.18.1-1.58.1-4.83s0-3.65-.1-4.83c-.1-1.28-.3-2.07-.59-2.86-.2-.79-.59-1.48-1.28-2.17s-1.28-1.08-2.07-1.38c-.79-.3-1.58-.49-2.86-.59-1.28,0-1.68,0-4.93,0Zm0,2.17c3.15,0,3.55,0,4.73.1s1.77.2,2.17.39c.59.2.99.49,1.38.89s.69.79.89,1.38c.2.39.39,1.08.39,2.17.1,1.28.1,1.58.1,4.73s0,3.55-.1,4.73-.2,1.77-.39,2.17c-.2.59-.49.99-.89,1.38s-.79.69-1.38.89c-.39.2-1.08.39-2.17.39-1.28.1-1.58.1-4.73.1s-3.55,0-4.73-.1c-1.18-.1-1.77-.2-2.17-.39-.59-.2-.99-.49-1.38-.89s-.69-.79-.89-1.38c-.2-.39-.39-1.08-.39-2.17-.1-1.18-.1-1.58-.1-4.73s0-3.55.1-4.73c0-1.18.2-1.87.3-2.27.2-.59.49-.99.89-1.38.49-.39.89-.59,1.38-.89.39-.1,1.08-.3,2.27-.39h4.73,0Z"/><path class="cls-1" d="m11.83,15.77c-2.17,0-3.94-1.77-3.94-3.94s1.77-3.94,3.94-3.94,3.94,1.77,3.94,3.94-1.77,3.94-3.94,3.94Zm0-10.05c-3.35,0-6.11,2.76-6.11,6.11s2.76,6.11,6.11,6.11,6.11-2.76,6.11-6.11-2.76-6.11-6.11-6.11Z"/><path class="cls-1" d="m19.51,5.52c0,.79-.59,1.38-1.38,1.38s-1.38-.59-1.38-1.38.59-1.38,1.38-1.38,1.38.59,1.38,1.38Z"/></g></svg>